G04*
G04 #@! TF.GenerationSoftware,Altium Limited,Altium Designer,25.4.2 (15)*
G04*
G04 Layer_Color=65535*
%FSLAX44Y44*%
%MOMM*%
G71*
G04*
G04 #@! TF.SameCoordinates,B37D86E9-8EB0-469F-8F7F-38126ABF2200*
G04*
G04*
G04 #@! TF.FilePolarity,Positive*
G04*
G01*
G75*
%ADD10C,0.2000*%
%ADD11C,0.7620*%
%ADD12C,0.2032*%
%ADD13C,0.1270*%
%ADD14C,0.2540*%
D10*
X966070Y1521460D02*
G03*
X966070Y1521460I-152000J0D01*
G01*
X465690Y1531620D02*
G03*
X465690Y1531620I-152000J0D01*
G01*
X1711560Y2047240D02*
G03*
X1711560Y2047240I-152000J0D01*
G01*
X488550Y1898650D02*
G03*
X488550Y1898650I-152000J0D01*
G01*
X266680Y214630D02*
G03*
X266680Y214630I-1000J0D01*
G01*
X960670Y568960D02*
G03*
X960670Y568960I-1000J0D01*
G01*
X924290Y214180D02*
G03*
X924290Y214180I-1000J0D01*
G01*
X947150Y931400D02*
G03*
X947150Y931400I-1000J0D01*
G01*
X1213250Y2231390D02*
Y2256790D01*
X1263250Y2231390D02*
Y2256790D01*
X1213250Y2206390D02*
Y2231390D01*
Y2206390D02*
X1263250D01*
Y2231390D01*
X1213250Y2256790D02*
Y2281790D01*
X1263250D01*
Y2256790D02*
Y2281790D01*
D11*
X236220Y377190D02*
G03*
X236220Y377190I-1270J0D01*
G01*
X642620Y443230D02*
G03*
X642620Y443230I-1270J0D01*
G01*
X1658620Y420370D02*
G03*
X1658620Y420370I-1270J0D01*
G01*
X384810Y850900D02*
G03*
X384810Y850900I-1270J0D01*
G01*
X1153160Y1029970D02*
G03*
X1153160Y1029970I-1270J0D01*
G01*
X1369060Y1778000D02*
G03*
X1369060Y1778000I-1270J0D01*
G01*
X697230Y1844040D02*
G03*
X697230Y1844040I-1270J0D01*
G01*
X1336040Y1074420D02*
G03*
X1336040Y1074420I-1270J0D01*
G01*
X742950Y2258060D02*
G03*
X742950Y2258060I-1270J0D01*
G01*
D12*
X176530Y1169670D02*
Y1286510D01*
Y1169670D02*
X213360D01*
Y1286510D01*
X176530D02*
X213360D01*
X175260Y827940D02*
Y944780D01*
Y827940D02*
X212090D01*
Y944780D01*
X175260D02*
X212090D01*
X179070Y1007010D02*
Y1123850D01*
Y1007010D02*
X215900D01*
Y1123850D01*
X179070D02*
X215900D01*
X1443990Y331470D02*
Y407670D01*
Y331470D02*
X1469390D01*
Y407670D01*
X1443990D02*
X1469390D01*
X740410Y356870D02*
Y433070D01*
Y356870D02*
X765810D01*
Y433070D01*
X740410D02*
X765810D01*
X914400Y2040890D02*
X915670Y2042160D01*
X914400Y1977390D02*
Y2040890D01*
Y1977390D02*
X916940D01*
X953770D01*
Y2042160D01*
X915670D02*
X953770D01*
X1300480Y862330D02*
X1301750Y863600D01*
X1300480Y798830D02*
Y862330D01*
Y798830D02*
X1303020D01*
X1339850D01*
Y863600D01*
X1301750D02*
X1339850D01*
X451645Y446133D02*
X526575D01*
Y401684D02*
Y446133D01*
X451645Y401684D02*
X526575D01*
X451645D02*
Y446133D01*
X924560Y1887220D02*
X1046480D01*
X924560Y1776730D02*
Y1887220D01*
Y1776730D02*
X925830Y1775460D01*
X1046480D01*
Y1887220D01*
X224790Y325120D02*
Y383540D01*
X307340D01*
X308610Y382270D01*
Y325120D02*
Y382270D01*
X228600Y325120D02*
X308610D01*
X224790D02*
X228600D01*
X589280Y453390D02*
X647700D01*
Y370840D02*
Y453390D01*
X646430Y369570D02*
X647700Y370840D01*
X589280Y369570D02*
X646430D01*
X589280D02*
Y449580D01*
Y453390D01*
X1605280Y430530D02*
X1663700D01*
Y347980D02*
Y430530D01*
X1662430Y346710D02*
X1663700Y347980D01*
X1605280Y346710D02*
X1662430D01*
X1605280D02*
Y426720D01*
Y430530D01*
X331470Y861060D02*
X389890D01*
Y778510D02*
Y861060D01*
X388620Y777240D02*
X389890Y778510D01*
X331470Y777240D02*
X388620D01*
X331470D02*
Y857250D01*
Y861060D01*
X1099820Y1040130D02*
X1158240D01*
Y957580D02*
Y1040130D01*
X1156970Y956310D02*
X1158240Y957580D01*
X1099820Y956310D02*
X1156970D01*
X1099820D02*
Y1036320D01*
Y1040130D01*
X1361440Y1767840D02*
X1419860D01*
X1361440D02*
Y1850390D01*
X1362710Y1851660D01*
X1419860D01*
Y1771650D02*
Y1851660D01*
Y1767840D02*
Y1771650D01*
X689610Y1833880D02*
X748030D01*
X689610D02*
Y1916430D01*
X690880Y1917700D01*
X748030D01*
Y1837690D02*
Y1917700D01*
Y1833880D02*
Y1837690D01*
X1282700Y1084580D02*
X1341120D01*
Y1002030D02*
Y1084580D01*
X1339850Y1000760D02*
X1341120Y1002030D01*
X1282700Y1000760D02*
X1339850D01*
X1282700D02*
Y1080770D01*
Y1084580D01*
X689610Y2268220D02*
X748030D01*
Y2185670D02*
Y2268220D01*
X746760Y2184400D02*
X748030Y2185670D01*
X689610Y2184400D02*
X746760D01*
X689610D02*
Y2264410D01*
Y2268220D01*
X869641Y1279342D02*
X870544Y1280244D01*
X869641Y1167162D02*
Y1279342D01*
Y1167162D02*
X870093Y1166711D01*
X942272D01*
X942573Y1167012D01*
Y1280544D01*
X942423Y1280394D02*
X942573Y1280544D01*
X869341Y1280394D02*
X942423D01*
X769026Y1174666D02*
X769929Y1175568D01*
Y1287748D01*
X769477Y1288199D02*
X769929Y1287748D01*
X697298Y1288199D02*
X769477D01*
X696997Y1287898D02*
X697298Y1288199D01*
X696997Y1174365D02*
Y1287898D01*
Y1174365D02*
X697147Y1174516D01*
X770229D01*
X466766Y1169586D02*
X467668Y1170489D01*
Y1282668D01*
X467217Y1283119D02*
X467668Y1282668D01*
X395037Y1283119D02*
X467217D01*
X394737Y1282818D02*
X395037Y1283119D01*
X394737Y1169286D02*
Y1282818D01*
Y1169286D02*
X394887Y1169436D01*
X467969D01*
D13*
X457660Y548640D02*
X465660D01*
Y557890D02*
X471460D01*
X465660Y539390D02*
X471460D01*
X465660Y548640D02*
Y557890D01*
Y539390D02*
Y548640D01*
X500660D02*
X508660D01*
X494860Y557890D02*
X500660D01*
Y548640D02*
Y557890D01*
Y539390D02*
Y548640D01*
X494860Y539390D02*
X500660D01*
X424180Y260070D02*
Y268070D01*
X433430Y254270D02*
Y260070D01*
X414930Y254270D02*
Y260070D01*
X424180D02*
X433430D01*
X414930D02*
X424180D01*
Y217070D02*
Y225070D01*
X433430D02*
Y230870D01*
X424180Y225070D02*
X433430D01*
X414930D02*
X424180D01*
X414930D02*
Y230870D01*
X518160Y258240D02*
Y266240D01*
X527410Y252440D02*
Y258240D01*
X508910Y252440D02*
Y258240D01*
X518160D02*
X527410D01*
X508910D02*
X518160D01*
Y215240D02*
Y223240D01*
X527410D02*
Y229040D01*
X518160Y223240D02*
X527410D01*
X508910D02*
X518160D01*
X508910D02*
Y229040D01*
X614680Y261340D02*
Y269340D01*
X623930Y255540D02*
Y261340D01*
X605430Y255540D02*
Y261340D01*
X614680D02*
X623930D01*
X605430D02*
X614680D01*
Y218340D02*
Y226340D01*
X623930D02*
Y232140D01*
X614680Y226340D02*
X623930D01*
X605430D02*
X614680D01*
X605430D02*
Y232140D01*
X1315720Y479780D02*
Y487780D01*
X1324970Y473980D02*
Y479780D01*
X1306470Y473980D02*
Y479780D01*
X1315720D02*
X1324970D01*
X1306470D02*
X1315720D01*
Y436780D02*
Y444780D01*
X1324970D02*
Y450580D01*
X1315720Y444780D02*
X1324970D01*
X1306470D02*
X1315720D01*
X1306470D02*
Y450580D01*
X1120140Y452400D02*
Y460400D01*
X1129390Y446600D02*
Y452400D01*
X1110890Y446600D02*
Y452400D01*
X1120140D02*
X1129390D01*
X1110890D02*
X1120140D01*
Y409400D02*
Y417400D01*
X1129390D02*
Y423200D01*
X1120140Y417400D02*
X1129390D01*
X1110890D02*
X1120140D01*
X1110890D02*
Y423200D01*
X1244600Y228500D02*
Y236500D01*
X1235350D02*
Y242300D01*
X1253850Y236500D02*
Y242300D01*
X1235350Y236500D02*
X1244600D01*
X1253850D01*
X1244600Y271500D02*
Y279500D01*
X1235350Y265700D02*
Y271500D01*
X1244600D01*
X1253850D01*
Y265700D02*
Y271500D01*
X894080Y354760D02*
Y362760D01*
X903330Y348960D02*
Y354760D01*
X884830Y348960D02*
Y354760D01*
X894080D02*
X903330D01*
X884830D02*
X894080D01*
Y311760D02*
Y319760D01*
X903330D02*
Y325560D01*
X894080Y319760D02*
X903330D01*
X884830D02*
X894080D01*
X884830D02*
Y325560D01*
X542290Y1085010D02*
Y1093010D01*
X551540Y1079210D02*
Y1085010D01*
X533040Y1079210D02*
Y1085010D01*
X542290D02*
X551540D01*
X533040D02*
X542290D01*
Y1042010D02*
Y1050010D01*
X551540D02*
Y1055810D01*
X542290Y1050010D02*
X551540D01*
X533040D02*
X542290D01*
X533040D02*
Y1055810D01*
X381000Y962560D02*
Y970560D01*
X371750D02*
Y976360D01*
X390250Y970560D02*
Y976360D01*
X371750Y970560D02*
X381000D01*
X390250D01*
X381000Y1005560D02*
Y1013560D01*
X371750Y999760D02*
Y1005560D01*
X381000D01*
X390250D01*
Y999760D02*
Y1005560D01*
X1425930Y1654810D02*
X1433930D01*
X1420130Y1645560D02*
X1425930D01*
X1420130Y1664060D02*
X1425930D01*
Y1645560D02*
Y1654810D01*
Y1664060D01*
X1382930Y1654810D02*
X1390930D01*
Y1645560D02*
X1396730D01*
X1390930D02*
Y1654810D01*
Y1664060D01*
X1396730D01*
X1361440Y2249070D02*
Y2257070D01*
X1352190D02*
Y2262870D01*
X1370690Y2257070D02*
Y2262870D01*
X1352190Y2257070D02*
X1361440D01*
X1370690D01*
X1361440Y2292070D02*
Y2300070D01*
X1352190Y2286270D02*
Y2292070D01*
X1361440D01*
X1370690D01*
Y2286270D02*
Y2292070D01*
X290730Y2205990D02*
X298730D01*
Y2215240D02*
X304530D01*
X298730Y2196740D02*
X304530D01*
X298730Y2205990D02*
Y2215240D01*
Y2196740D02*
Y2205990D01*
X333730D02*
X341730D01*
X327930Y2215240D02*
X333730D01*
Y2205990D02*
Y2215240D01*
Y2196740D02*
Y2205990D01*
X327930Y2196740D02*
X333730D01*
X552730Y2209800D02*
X560730D01*
X546930Y2200550D02*
X552730D01*
X546930Y2219050D02*
X552730D01*
Y2200550D02*
Y2209800D01*
Y2219050D01*
X509730Y2209800D02*
X517730D01*
Y2200550D02*
X523530D01*
X517730D02*
Y2209800D01*
Y2219050D01*
X523530D01*
X1013180Y2254250D02*
X1021180D01*
X1007380Y2245000D02*
X1013180D01*
X1007380Y2263500D02*
X1013180D01*
Y2245000D02*
Y2254250D01*
Y2263500D01*
X970180Y2254250D02*
X978180D01*
Y2245000D02*
X983980D01*
X978180D02*
Y2254250D01*
Y2263500D01*
X983980D01*
X148680Y274630D02*
X258680D01*
Y154630D02*
Y274630D01*
X148680Y154630D02*
X258680D01*
X148680D02*
Y274630D01*
X877570Y655010D02*
X941070D01*
X877570Y559110D02*
X941070D01*
X837240Y132080D02*
Y195580D01*
X933140Y132080D02*
Y195580D01*
X860100Y849300D02*
Y912800D01*
X956000Y849300D02*
Y912800D01*
D14*
X689861Y1946652D02*
X687321Y1949191D01*
X682243D01*
X679704Y1946652D01*
Y1936495D01*
X682243Y1933956D01*
X687321D01*
X689861Y1936495D01*
X694939Y1933956D02*
X700017D01*
X697478D01*
Y1949191D01*
X694939Y1946652D01*
X707635D02*
X710174Y1949191D01*
X715253D01*
X717792Y1946652D01*
Y1936495D01*
X715253Y1933956D01*
X710174D01*
X707635Y1936495D01*
Y1946652D01*
X1306322Y513842D02*
Y529077D01*
X1313940D01*
X1316479Y526538D01*
Y521460D01*
X1313940Y518920D01*
X1306322D01*
X1311400D02*
X1316479Y513842D01*
X1331714Y529077D02*
X1321557D01*
Y521460D01*
X1326635Y523999D01*
X1329175D01*
X1331714Y521460D01*
Y516381D01*
X1329175Y513842D01*
X1324096D01*
X1321557Y516381D01*
X393954Y1293876D02*
Y1309111D01*
X401572D01*
X404111Y1306572D01*
Y1301494D01*
X401572Y1298954D01*
X393954D01*
X399032D02*
X404111Y1293876D01*
X409189D02*
X414267D01*
X411728D01*
Y1309111D01*
X409189Y1306572D01*
X432042Y1293876D02*
X421885D01*
X432042Y1304033D01*
Y1306572D01*
X429502Y1309111D01*
X424424D01*
X421885Y1306572D01*
X696214Y1298956D02*
Y1314191D01*
X703831D01*
X706371Y1311652D01*
Y1306573D01*
X703831Y1304034D01*
X696214D01*
X701292D02*
X706371Y1298956D01*
X711449D02*
X716527D01*
X713988D01*
Y1314191D01*
X711449Y1311652D01*
X724145Y1298956D02*
X729223D01*
X726684D01*
Y1314191D01*
X724145Y1311652D01*
X868934Y1291336D02*
Y1306571D01*
X876552D01*
X879091Y1304032D01*
Y1298954D01*
X876552Y1296414D01*
X868934D01*
X874012D02*
X879091Y1291336D01*
X884169D02*
X889247D01*
X886708D01*
Y1306571D01*
X884169Y1304032D01*
X896865D02*
X899404Y1306571D01*
X904482D01*
X907022Y1304032D01*
Y1293875D01*
X904482Y1291336D01*
X899404D01*
X896865Y1293875D01*
Y1304032D01*
X859790Y956305D02*
X864868D01*
X862329D01*
Y941070D01*
X859790D01*
X864868D01*
X872486Y953766D02*
X875025Y956305D01*
X880103D01*
X882643Y953766D01*
Y951227D01*
X880103Y948688D01*
X877564D01*
X880103D01*
X882643Y946148D01*
Y943609D01*
X880103Y941070D01*
X875025D01*
X872486Y943609D01*
X836930Y239009D02*
X842008D01*
X839469D01*
Y223774D01*
X836930D01*
X842008D01*
X859783D02*
X849626D01*
X859783Y233931D01*
Y236470D01*
X857243Y239009D01*
X852165D01*
X849626Y236470D01*
X863854Y680715D02*
X868932D01*
X866393D01*
Y665480D01*
X863854D01*
X868932D01*
X876550D02*
X881628D01*
X879089D01*
Y680715D01*
X876550Y678176D01*
X125727Y300223D02*
X120648D01*
X123188D01*
Y287527D01*
X120648Y284988D01*
X118109D01*
X115570Y287527D01*
X130805Y284988D02*
X135883D01*
X133344D01*
Y300223D01*
X130805Y297684D01*
X900437Y2222502D02*
Y2237737D01*
X908054D01*
X910593Y2235198D01*
Y2230120D01*
X908054Y2227581D01*
X900437D01*
X905515D02*
X910593Y2222502D01*
X925828D02*
X915672D01*
X925828Y2232659D01*
Y2235198D01*
X923289Y2237737D01*
X918211D01*
X915672Y2235198D01*
X930907D02*
X933446Y2237737D01*
X938524D01*
X941063Y2235198D01*
Y2232659D01*
X938524Y2230120D01*
X935985D01*
X938524D01*
X941063Y2227581D01*
Y2225042D01*
X938524Y2222502D01*
X933446D01*
X930907Y2225042D01*
X493776Y2229358D02*
Y2244593D01*
X501394D01*
X503933Y2242054D01*
Y2236976D01*
X501394Y2234436D01*
X493776D01*
X498854D02*
X503933Y2229358D01*
X519168D02*
X509011D01*
X519168Y2239515D01*
Y2242054D01*
X516629Y2244593D01*
X511550D01*
X509011Y2242054D01*
X524246Y2229358D02*
X529324D01*
X526785D01*
Y2244593D01*
X524246Y2242054D01*
X274828Y2225548D02*
Y2240783D01*
X282446D01*
X284985Y2238244D01*
Y2233165D01*
X282446Y2230626D01*
X274828D01*
X279906D02*
X284985Y2225548D01*
X300220D02*
X290063D01*
X300220Y2235705D01*
Y2238244D01*
X297681Y2240783D01*
X292602D01*
X290063Y2238244D01*
X305298D02*
X307837Y2240783D01*
X312916D01*
X315455Y2238244D01*
Y2228087D01*
X312916Y2225548D01*
X307837D01*
X305298Y2228087D01*
Y2238244D01*
X1352042Y2326132D02*
Y2341367D01*
X1359659D01*
X1362199Y2338828D01*
Y2333750D01*
X1359659Y2331210D01*
X1352042D01*
X1357120D02*
X1362199Y2326132D01*
X1367277D02*
X1372355D01*
X1369816D01*
Y2341367D01*
X1367277Y2338828D01*
X1379973D02*
X1382512Y2341367D01*
X1387590D01*
X1390130Y2338828D01*
Y2336289D01*
X1387590Y2333750D01*
X1390130Y2331210D01*
Y2328671D01*
X1387590Y2326132D01*
X1382512D01*
X1379973Y2328671D01*
Y2331210D01*
X1382512Y2333750D01*
X1379973Y2336289D01*
Y2338828D01*
X1382512Y2333750D02*
X1387590D01*
X1367028Y1674368D02*
Y1689603D01*
X1374646D01*
X1377185Y1687064D01*
Y1681985D01*
X1374646Y1679446D01*
X1367028D01*
X1372106D02*
X1377185Y1674368D01*
X1382263D02*
X1387341D01*
X1384802D01*
Y1689603D01*
X1382263Y1687064D01*
X1394959Y1689603D02*
X1405116D01*
Y1687064D01*
X1394959Y1676907D01*
Y1674368D01*
X371602Y1039622D02*
Y1054857D01*
X379220D01*
X381759Y1052318D01*
Y1047240D01*
X379220Y1044700D01*
X371602D01*
X376680D02*
X381759Y1039622D01*
X386837D02*
X391915D01*
X389376D01*
Y1054857D01*
X386837Y1052318D01*
X409690Y1054857D02*
X399533D01*
Y1047240D01*
X404611Y1049779D01*
X407150D01*
X409690Y1047240D01*
Y1042161D01*
X407150Y1039622D01*
X402072D01*
X399533Y1042161D01*
X532892Y1119124D02*
Y1134359D01*
X540509D01*
X543049Y1131820D01*
Y1126741D01*
X540509Y1124202D01*
X532892D01*
X537970D02*
X543049Y1119124D01*
X548127D02*
X553205D01*
X550666D01*
Y1134359D01*
X548127Y1131820D01*
X568441Y1119124D02*
Y1134359D01*
X560823Y1126741D01*
X570980D01*
X884682Y388874D02*
Y404109D01*
X892299D01*
X894839Y401570D01*
Y396492D01*
X892299Y393952D01*
X884682D01*
X889760D02*
X894839Y388874D01*
X899917Y401570D02*
X902456Y404109D01*
X907535D01*
X910074Y401570D01*
Y399031D01*
X907535Y396492D01*
X910074Y393952D01*
Y391413D01*
X907535Y388874D01*
X902456D01*
X899917Y391413D01*
Y393952D01*
X902456Y396492D01*
X899917Y399031D01*
Y401570D01*
X902456Y396492D02*
X907535D01*
X1235202Y305562D02*
Y320797D01*
X1242820D01*
X1245359Y318258D01*
Y313179D01*
X1242820Y310640D01*
X1235202D01*
X1240280D02*
X1245359Y305562D01*
X1250437Y320797D02*
X1260594D01*
Y318258D01*
X1250437Y308101D01*
Y305562D01*
X1110742Y486664D02*
Y501899D01*
X1118360D01*
X1120899Y499360D01*
Y494282D01*
X1118360Y491742D01*
X1110742D01*
X1115820D02*
X1120899Y486664D01*
X1136134Y501899D02*
X1131055Y499360D01*
X1125977Y494282D01*
Y489203D01*
X1128516Y486664D01*
X1133595D01*
X1136134Y489203D01*
Y491742D01*
X1133595Y494282D01*
X1125977D01*
X605282Y295402D02*
Y310637D01*
X612900D01*
X615439Y308098D01*
Y303020D01*
X612900Y300480D01*
X605282D01*
X610360D02*
X615439Y295402D01*
X628135D02*
Y310637D01*
X620517Y303020D01*
X630674D01*
X508762Y292354D02*
Y307589D01*
X516380D01*
X518919Y305050D01*
Y299972D01*
X516380Y297432D01*
X508762D01*
X513840D02*
X518919Y292354D01*
X523997Y305050D02*
X526536Y307589D01*
X531615D01*
X534154Y305050D01*
Y302511D01*
X531615Y299972D01*
X529075D01*
X531615D01*
X534154Y297432D01*
Y294893D01*
X531615Y292354D01*
X526536D01*
X523997Y294893D01*
X414782Y294132D02*
Y309367D01*
X422399D01*
X424939Y306828D01*
Y301749D01*
X422399Y299210D01*
X414782D01*
X419860D02*
X424939Y294132D01*
X440174D02*
X430017D01*
X440174Y304289D01*
Y306828D01*
X437635Y309367D01*
X432556D01*
X430017Y306828D01*
X441706Y568198D02*
Y583433D01*
X449324D01*
X451863Y580894D01*
Y575816D01*
X449324Y573276D01*
X441706D01*
X446784D02*
X451863Y568198D01*
X456941D02*
X462019D01*
X459480D01*
Y583433D01*
X456941Y580894D01*
X691131Y2295902D02*
X688592Y2298441D01*
X683513D01*
X680974Y2295902D01*
Y2285745D01*
X683513Y2283206D01*
X688592D01*
X691131Y2285745D01*
X696209Y2283206D02*
X701287D01*
X698748D01*
Y2298441D01*
X696209Y2295902D01*
X716523Y2283206D02*
Y2298441D01*
X708905Y2290824D01*
X719062D01*
X1284221Y1112262D02*
X1281682Y1114801D01*
X1276603D01*
X1274064Y1112262D01*
Y1102105D01*
X1276603Y1099566D01*
X1281682D01*
X1284221Y1102105D01*
X1289299Y1099566D02*
X1294377D01*
X1291838D01*
Y1114801D01*
X1289299Y1112262D01*
X1301995Y1099566D02*
X1307073D01*
X1304534D01*
Y1114801D01*
X1301995Y1112262D01*
X1361691Y1880612D02*
X1359151Y1883151D01*
X1354073D01*
X1351534Y1880612D01*
Y1870455D01*
X1354073Y1867916D01*
X1359151D01*
X1361691Y1870455D01*
X1366769Y1880612D02*
X1369308Y1883151D01*
X1374387D01*
X1376926Y1880612D01*
Y1878073D01*
X1374387Y1875533D01*
X1376926Y1872994D01*
Y1870455D01*
X1374387Y1867916D01*
X1369308D01*
X1366769Y1870455D01*
Y1872994D01*
X1369308Y1875533D01*
X1366769Y1878073D01*
Y1880612D01*
X1369308Y1875533D02*
X1374387D01*
X1101341Y1067812D02*
X1098801Y1070351D01*
X1093723D01*
X1091184Y1067812D01*
Y1057655D01*
X1093723Y1055116D01*
X1098801D01*
X1101341Y1057655D01*
X1116576Y1070351D02*
X1111497Y1067812D01*
X1106419Y1062734D01*
Y1057655D01*
X1108958Y1055116D01*
X1114037D01*
X1116576Y1057655D01*
Y1060194D01*
X1114037Y1062734D01*
X1106419D01*
X332991Y888742D02*
X330452Y891281D01*
X325373D01*
X322834Y888742D01*
Y878585D01*
X325373Y876046D01*
X330452D01*
X332991Y878585D01*
X348226Y891281D02*
X338069D01*
Y883663D01*
X343147Y886203D01*
X345687D01*
X348226Y883663D01*
Y878585D01*
X345687Y876046D01*
X340608D01*
X338069Y878585D01*
X1606801Y458212D02*
X1604261Y460751D01*
X1599183D01*
X1596644Y458212D01*
Y448055D01*
X1599183Y445516D01*
X1604261D01*
X1606801Y448055D01*
X1611879Y458212D02*
X1614418Y460751D01*
X1619497D01*
X1622036Y458212D01*
Y455673D01*
X1619497Y453134D01*
X1616957D01*
X1619497D01*
X1622036Y450594D01*
Y448055D01*
X1619497Y445516D01*
X1614418D01*
X1611879Y448055D01*
X590801Y481072D02*
X588261Y483611D01*
X583183D01*
X580644Y481072D01*
Y470915D01*
X583183Y468376D01*
X588261D01*
X590801Y470915D01*
X606036Y468376D02*
X595879D01*
X606036Y478533D01*
Y481072D01*
X603497Y483611D01*
X598418D01*
X595879Y481072D01*
X230121Y416302D02*
X227582Y418841D01*
X222503D01*
X219964Y416302D01*
Y406145D01*
X222503Y403606D01*
X227582D01*
X230121Y406145D01*
X235199Y403606D02*
X240277D01*
X237738D01*
Y418841D01*
X235199Y416302D01*
X926084Y1912361D02*
X931162D01*
X928623D01*
Y1897126D01*
X926084D01*
X931162D01*
X946397D02*
Y1912361D01*
X938780Y1904743D01*
X948937D01*
X453136Y476499D02*
X463293D01*
X458214D01*
Y461264D01*
X468371D02*
X473449D01*
X470910D01*
Y476499D01*
X468371Y473960D01*
X1302004Y887471D02*
Y872236D01*
Y879854D01*
X1312161D01*
Y887471D01*
Y872236D01*
X1324857D02*
Y887471D01*
X1317239Y879854D01*
X1327396D01*
X915924Y2066031D02*
Y2050796D01*
Y2058414D01*
X926081D01*
Y2066031D01*
Y2050796D01*
X931159Y2063492D02*
X933698Y2066031D01*
X938777D01*
X941316Y2063492D01*
Y2060953D01*
X938777Y2058414D01*
X936237D01*
X938777D01*
X941316Y2055874D01*
Y2053335D01*
X938777Y2050796D01*
X933698D01*
X931159Y2053335D01*
X741934Y456941D02*
Y441706D01*
Y449324D01*
X752091D01*
Y456941D01*
Y441706D01*
X767326D02*
X757169D01*
X767326Y451863D01*
Y454402D01*
X764787Y456941D01*
X759708D01*
X757169Y454402D01*
X1445514Y431541D02*
Y416306D01*
Y423923D01*
X1455671D01*
Y431541D01*
Y416306D01*
X1460749D02*
X1465827D01*
X1463288D01*
Y431541D01*
X1460749Y429002D01*
X188973Y2079240D02*
X186434Y2081779D01*
X181355D01*
X178816Y2079240D01*
Y2069083D01*
X181355Y2066544D01*
X186434D01*
X188973Y2069083D01*
X194051Y2066544D02*
X199129D01*
X196590D01*
Y2081779D01*
X194051Y2079240D01*
X216904Y2066544D02*
X206747D01*
X216904Y2076701D01*
Y2079240D01*
X214364Y2081779D01*
X209286D01*
X206747Y2079240D01*
X1411983Y2227830D02*
X1409444Y2230369D01*
X1404365D01*
X1401826Y2227830D01*
Y2217673D01*
X1404365Y2215134D01*
X1409444D01*
X1411983Y2217673D01*
X1417061D02*
X1419600Y2215134D01*
X1424679D01*
X1427218Y2217673D01*
Y2227830D01*
X1424679Y2230369D01*
X1419600D01*
X1417061Y2227830D01*
Y2225291D01*
X1419600Y2222751D01*
X1427218D01*
X166113Y1712210D02*
X163573Y1714749D01*
X158495D01*
X155956Y1712210D01*
Y1702053D01*
X158495Y1699514D01*
X163573D01*
X166113Y1702053D01*
X171191Y1714749D02*
X181348D01*
Y1712210D01*
X171191Y1702053D01*
Y1699514D01*
X666493Y1702050D02*
X663953Y1704589D01*
X658875D01*
X656336Y1702050D01*
Y1691893D01*
X658875Y1689354D01*
X663953D01*
X666493Y1691893D01*
X679189Y1689354D02*
Y1704589D01*
X671571Y1696971D01*
X681728D01*
X1224531Y2303522D02*
X1221992Y2306061D01*
X1216913D01*
X1214374Y2303522D01*
Y2293365D01*
X1216913Y2290826D01*
X1221992D01*
X1224531Y2293365D01*
X1229609Y2290826D02*
X1234687D01*
X1232148D01*
Y2306061D01*
X1229609Y2303522D01*
X1242305D02*
X1244844Y2306061D01*
X1249922D01*
X1252462Y2303522D01*
Y2300983D01*
X1249922Y2298443D01*
X1247383D01*
X1249922D01*
X1252462Y2295904D01*
Y2293365D01*
X1249922Y2290826D01*
X1244844D01*
X1242305Y2293365D01*
X176784Y953516D02*
Y968751D01*
X184401D01*
X186941Y966212D01*
Y961133D01*
X184401Y958594D01*
X176784D01*
X181862D02*
X186941Y953516D01*
X192019D02*
X197097D01*
X194558D01*
Y968751D01*
X192019Y966212D01*
X204715D02*
X207254Y968751D01*
X212332D01*
X214872Y966212D01*
Y963673D01*
X212332Y961133D01*
X209793D01*
X212332D01*
X214872Y958594D01*
Y956055D01*
X212332Y953516D01*
X207254D01*
X204715Y956055D01*
X178054Y1295146D02*
Y1310381D01*
X185672D01*
X188211Y1307842D01*
Y1302764D01*
X185672Y1300224D01*
X178054D01*
X183132D02*
X188211Y1295146D01*
X193289Y1297685D02*
X195828Y1295146D01*
X200907D01*
X203446Y1297685D01*
Y1307842D01*
X200907Y1310381D01*
X195828D01*
X193289Y1307842D01*
Y1305303D01*
X195828Y1302764D01*
X203446D01*
X180594Y1132586D02*
Y1147821D01*
X188211D01*
X190751Y1145282D01*
Y1140203D01*
X188211Y1137664D01*
X180594D01*
X185672D02*
X190751Y1132586D01*
X195829D02*
X200907D01*
X198368D01*
Y1147821D01*
X195829Y1145282D01*
X218682Y1147821D02*
X213603Y1145282D01*
X208525Y1140203D01*
Y1135125D01*
X211064Y1132586D01*
X216143D01*
X218682Y1135125D01*
Y1137664D01*
X216143Y1140203D01*
X208525D01*
M02*
