G04*
G04 #@! TF.GenerationSoftware,Altium Limited,Altium Designer,25.4.2 (15)*
G04*
G04 Layer_Physical_Order=1*
G04 Layer_Color=255*
%FSLAX44Y44*%
%MOMM*%
G71*
G04*
G04 #@! TF.SameCoordinates,B37D86E9-8EB0-469F-8F7F-38126ABF2200*
G04*
G04*
G04 #@! TF.FilePolarity,Positive*
G04*
G01*
G75*
%ADD30C,1.0000*%
%ADD31C,1.5000*%
%ADD32C,2.0000*%
%ADD33C,1.8000*%
%ADD34C,2.0000*%
%ADD35O,2.5000X1.5000*%
%ADD36C,3.0000*%
%ADD37C,1.5000*%
%ADD38O,1.2000X2.5000*%
%ADD39C,2.5000*%
%ADD40C,1.2580*%
%ADD41O,1.3080X2.6160*%
%ADD42O,2.6160X1.3080*%
%ADD43C,1.2000*%
%ADD44C,1.1300*%
%ADD45R,1.1300X1.1300*%
%ADD46R,1.1300X1.1300*%
%ADD47C,2.7000*%
D30*
X949020Y645160D02*
Y752004D01*
X955040Y758024D01*
Y760730D01*
X847090Y203530D02*
Y203882D01*
X846220Y204752D02*
X847090Y203882D01*
X846220Y204752D02*
Y252925D01*
X866478Y273183D01*
X895112D01*
X915370Y293441D01*
Y615314D01*
X940467Y640410D01*
X943918D01*
X948668Y645160D01*
X949020D01*
X733120Y900100D02*
X741680D01*
X618490Y1014730D02*
X733120Y900100D01*
X741680D02*
X878503D01*
X618490Y1014730D02*
Y1534517D01*
X949633Y1865660D01*
X344500Y900100D02*
X741680D01*
X878503D02*
X890600Y912197D01*
X314960Y929640D02*
X344500Y900100D01*
X1023927Y1769641D02*
X1053376Y1799091D01*
X940034Y1805899D02*
X976292Y1769641D01*
X1023927D01*
X940034Y1805899D02*
Y1837982D01*
X1053376Y1799091D02*
X1359671D01*
X1390650Y1830070D01*
X946763Y1862790D02*
X949633Y1865660D01*
X946763Y1844710D02*
Y1862790D01*
X940034Y1837982D02*
X946763Y1844710D01*
X949633Y1865660D02*
Y1869719D01*
X954680Y1874766D01*
Y2005760D01*
X939557Y2020883D02*
X954680Y2005760D01*
X933137Y2020883D02*
X939557D01*
X932180Y2021840D02*
X933137Y2020883D01*
X895350Y920398D02*
Y920750D01*
X890600Y915648D02*
X895350Y920398D01*
X890600Y912197D02*
Y915648D01*
D31*
X946150Y920750D02*
Y1144270D01*
X892810Y1197610D02*
X946150Y1144270D01*
X920750Y920750D02*
Y928089D01*
X865859Y982980D02*
X920750Y928089D01*
X731520Y982980D02*
X865859D01*
X541655Y1287145D02*
Y1415415D01*
X542290Y1416050D01*
X541020Y1286510D02*
X541655Y1287145D01*
X832163Y772473D02*
X833120Y773430D01*
X819463Y772473D02*
X832163D01*
X817880Y770890D02*
X819463Y772473D01*
X795020Y770890D02*
X817880D01*
X751840Y727710D02*
X795020Y770890D01*
X871220Y242570D02*
X873760D01*
X876300Y240030D01*
X924560D01*
X1036320Y351790D01*
X190879Y921920D02*
X191770D01*
X164270Y895311D02*
X190879Y921920D01*
X164270Y677747D02*
Y895311D01*
Y677747D02*
X317020Y524997D01*
Y307432D02*
Y524997D01*
X250178Y240590D02*
X317020Y307432D01*
X205020Y240590D02*
X250178D01*
X183680Y219250D02*
X205020Y240590D01*
X183680Y214630D02*
Y219250D01*
X1037590Y967740D02*
X1038860Y969010D01*
Y1085850D01*
D32*
X1004570Y618490D02*
X1029970Y593090D01*
Y541020D02*
Y593090D01*
Y541020D02*
X1036320Y534670D01*
X1250950Y1976406D02*
Y1986280D01*
X1239234Y1964690D02*
X1250950Y1976406D01*
X1183620Y1964690D02*
X1239234D01*
X1013571Y1794641D02*
X1183620Y1964690D01*
X986647Y1794641D02*
X1013571D01*
X967609Y1813679D02*
X986647Y1794641D01*
X967609Y1813679D02*
Y1826515D01*
X967534Y1826591D02*
X967609Y1826515D01*
X1281430Y1644650D02*
X1283970D01*
X1259840Y1666240D02*
X1281430Y1644650D01*
X1259840Y1666240D02*
Y1746250D01*
D33*
X1300480Y718820D02*
X1303020Y716280D01*
X1278890Y718820D02*
X1300480D01*
X1217930Y779780D02*
X1278890Y718820D01*
D34*
X193040Y1187650D02*
D03*
Y1225650D02*
D03*
Y1263650D02*
D03*
X191770Y845920D02*
D03*
Y883920D02*
D03*
Y921920D02*
D03*
X195580Y1024990D02*
D03*
Y1062990D02*
D03*
Y1100990D02*
D03*
X955040Y760730D02*
D03*
X731520Y982980D02*
D03*
X542290Y1416050D02*
D03*
X541020Y1286510D02*
D03*
X833120Y773430D02*
D03*
X751840Y727710D02*
D03*
X871220Y242570D02*
D03*
X1036320Y351790D02*
D03*
X1004570Y618490D02*
D03*
X1036320Y534670D02*
D03*
X1250950Y1986280D02*
D03*
X1037590Y967740D02*
D03*
X1038860Y1085850D02*
D03*
X1283970Y1644650D02*
D03*
X1259840Y1746250D02*
D03*
X1303020Y716280D02*
D03*
X1217930Y779780D02*
D03*
X314960Y929640D02*
D03*
D35*
X1236980Y2258060D02*
D03*
Y2232660D02*
D03*
D36*
X862330Y1508760D02*
D03*
X763270Y1535430D02*
D03*
X262890Y1545590D02*
D03*
X361950Y1518920D02*
D03*
X1511300Y2059940D02*
D03*
X1610360Y2033270D02*
D03*
X285750Y1912620D02*
D03*
X384810Y1885950D02*
D03*
D37*
X1456690Y344170D02*
D03*
Y369570D02*
D03*
Y394970D02*
D03*
X753110Y369570D02*
D03*
Y394970D02*
D03*
Y420370D02*
D03*
X932180Y1996440D02*
D03*
Y2021840D02*
D03*
X1318260Y817880D02*
D03*
Y843280D02*
D03*
D38*
X515620Y427990D02*
D03*
X489484Y427886D02*
D03*
X464345Y428354D02*
D03*
D39*
X967534Y1826591D02*
D03*
X1000109Y1827141D02*
D03*
X949633Y1865660D02*
D03*
X984606Y1865136D02*
D03*
X1017417Y1865132D02*
D03*
X242570Y353060D02*
D03*
X287020Y354330D02*
D03*
X617220Y435610D02*
D03*
X618490Y391160D02*
D03*
X1633220Y412750D02*
D03*
X1634490Y368300D02*
D03*
X359410Y843280D02*
D03*
X360680Y798830D02*
D03*
X1127760Y1022350D02*
D03*
X1129030Y977900D02*
D03*
X1391920Y1785620D02*
D03*
X1390650Y1830070D02*
D03*
X720090Y1851660D02*
D03*
X718820Y1896110D02*
D03*
X1310640Y1066800D02*
D03*
X1311910Y1022350D02*
D03*
X717550Y2250440D02*
D03*
X718820Y2205990D02*
D03*
D40*
X448160Y548640D02*
D03*
X518160D02*
D03*
X424180Y277570D02*
D03*
Y207570D02*
D03*
X518160Y275740D02*
D03*
Y205740D02*
D03*
X614680Y278840D02*
D03*
Y208840D02*
D03*
X1315720Y497280D02*
D03*
Y427280D02*
D03*
X1120140Y469900D02*
D03*
Y399900D02*
D03*
X1244600Y219000D02*
D03*
Y289000D02*
D03*
X894080Y372260D02*
D03*
Y302260D02*
D03*
X542290Y1102510D02*
D03*
Y1032510D02*
D03*
X381000Y953060D02*
D03*
Y1023060D02*
D03*
X1443430Y1654810D02*
D03*
X1373430D02*
D03*
X1361440Y2239570D02*
D03*
Y2309570D02*
D03*
X281230Y2205990D02*
D03*
X351230D02*
D03*
X570230Y2209800D02*
D03*
X500230D02*
D03*
X1030680Y2254250D02*
D03*
X960680D02*
D03*
D41*
X183680Y214630D02*
D03*
D42*
X233680Y164630D02*
D03*
Y264630D02*
D03*
D43*
X158680D02*
D03*
X183680D02*
D03*
X233680Y214630D02*
D03*
X158680Y164630D02*
D03*
X183680D02*
D03*
D44*
X869620Y568960D02*
D03*
Y594360D02*
D03*
Y619760D02*
D03*
Y645160D02*
D03*
X949020D02*
D03*
Y619760D02*
D03*
Y594360D02*
D03*
X923290Y124130D02*
D03*
X897890D02*
D03*
X872490D02*
D03*
X847090D02*
D03*
Y203530D02*
D03*
X872490D02*
D03*
X897890D02*
D03*
X946150Y841350D02*
D03*
X920750D02*
D03*
X895350D02*
D03*
X869950D02*
D03*
Y920750D02*
D03*
X895350D02*
D03*
X920750D02*
D03*
D45*
X949020Y568960D02*
D03*
D46*
X923290Y203530D02*
D03*
X946150Y920750D02*
D03*
D47*
X892810Y1248410D02*
D03*
Y1197610D02*
D03*
X746760Y1206500D02*
D03*
Y1257300D02*
D03*
X444500Y1201420D02*
D03*
Y1252220D02*
D03*
M02*
