G04*
G04 #@! TF.GenerationSoftware,Altium Limited,Altium Designer,25.4.2 (15)*
G04*
G04 Layer_Physical_Order=2*
G04 Layer_Color=16711680*
%FSLAX44Y44*%
%MOMM*%
G71*
G04*
G04 #@! TF.SameCoordinates,B37D86E9-8EB0-469F-8F7F-38126ABF2200*
G04*
G04*
G04 #@! TF.FilePolarity,Positive*
G04*
G01*
G75*
%ADD30C,1.0000*%
%ADD31C,1.5000*%
%ADD32C,2.0000*%
%ADD33C,1.8000*%
%ADD34C,2.0000*%
%ADD35O,2.5000X1.5000*%
%ADD36C,3.0000*%
%ADD37C,1.5000*%
%ADD38O,1.2000X2.5000*%
%ADD39C,2.5000*%
%ADD40C,1.2580*%
%ADD41O,1.3080X2.6160*%
%ADD42O,2.6160X1.3080*%
%ADD43C,1.2000*%
%ADD44C,1.1300*%
%ADD45R,1.1300X1.1300*%
%ADD46R,1.1300X1.1300*%
%ADD47C,2.7000*%
%ADD48C,0.8000*%
D30*
X953127Y758817D02*
X955040Y760730D01*
X953127Y750304D02*
Y758817D01*
X949182Y746360D02*
X953127Y750304D01*
X824835Y746360D02*
X949182D01*
X782320Y788875D02*
X824835Y746360D01*
X782320Y788875D02*
Y833120D01*
X869950Y920750D01*
X489484Y427886D02*
Y519964D01*
X518160Y548640D01*
X897890Y203530D02*
Y297752D01*
X894080Y302260D02*
X1230642D01*
X1243902Y289000D01*
X1244600D01*
X949020Y594360D02*
X980440D01*
X1004570Y618490D01*
X949020Y594360D02*
X949269Y594609D01*
X962760D01*
X949020Y568960D02*
X1244040D01*
X1315720Y497280D01*
X312254Y929640D02*
X314960D01*
X304534Y921920D02*
X312254Y929640D01*
X191770Y921920D02*
X304534D01*
X894080Y301562D02*
Y302260D01*
Y301562D02*
X897890Y297752D01*
X489484Y382209D02*
Y427886D01*
X424180Y316904D02*
X489484Y382209D01*
X424180Y277570D02*
Y316904D01*
D31*
X728980Y985520D02*
X731520Y982980D01*
X553925Y985520D02*
X728980D01*
X517290Y1022155D02*
X553925Y985520D01*
X517290Y1022155D02*
Y1042865D01*
X541935Y1067510D01*
X542645D01*
X567290Y1092155D01*
Y1260240D01*
X541020Y1286510D02*
X567290Y1260240D01*
X592290Y1081799D02*
Y1082510D01*
X542290Y1032510D02*
X543001D01*
X592290Y1081799D01*
Y1082510D02*
X628137Y1118357D01*
X195580Y1100990D02*
X540770D01*
X542290Y1102510D01*
X494030Y1518920D02*
X542290Y1470660D01*
Y1416050D02*
Y1470660D01*
X1000109Y1141111D02*
Y1827141D01*
X829830Y1311390D02*
X892810Y1248410D01*
X776732Y1567930D02*
X829830Y1514832D01*
X1102393Y1046480D02*
X1126523Y1022350D01*
X1127760D01*
X906780Y1046480D02*
X1102393D01*
X649204Y1467326D02*
X749808Y1567930D01*
X776732D01*
X683260Y1320800D02*
X746760Y1257300D01*
X360722Y1320800D02*
X683260D01*
X829830Y1311390D02*
Y1514832D01*
X649204Y1446404D02*
Y1467326D01*
X548601Y1345800D02*
X649204Y1446404D01*
X236299Y1345800D02*
X548601D01*
X165540Y1275041D02*
X236299Y1345800D01*
X165540Y1252259D02*
Y1275041D01*
Y1252259D02*
X192149Y1225650D01*
X193040D01*
X140540Y1285396D02*
X165540Y1310396D01*
X140540Y1241904D02*
Y1285396D01*
Y1241904D02*
X165540Y1216904D01*
Y1310396D02*
Y1448240D01*
Y1054139D02*
Y1216904D01*
X444500Y1252220D02*
X506730D01*
X541020Y1286510D01*
X943900Y839100D02*
X946150Y841350D01*
X943900Y831761D02*
Y839100D01*
X885569Y773430D02*
X943900Y831761D01*
X833120Y773430D02*
X885569D01*
X750883Y726753D02*
X751840Y727710D01*
X750883Y714327D02*
Y726753D01*
X744083Y707527D02*
X750883Y714327D01*
X744083Y707527D02*
X772160Y679450D01*
Y596900D02*
Y679450D01*
Y596900D02*
X834341D01*
X315035Y477595D02*
X377115D01*
X135180Y297740D02*
X315035Y477595D01*
X135180Y154896D02*
Y297740D01*
Y154896D02*
X189096Y100980D01*
X907479D01*
X923290Y116791D01*
Y124130D01*
X377115Y477595D02*
X448160Y548640D01*
X825503Y489487D02*
X894620Y558605D01*
X860031Y571210D02*
X867370D01*
X834341Y596900D02*
X860031Y571210D01*
X448160Y548640D02*
X496420Y596900D01*
X867370Y571210D02*
X869620Y568960D01*
X496420Y596900D02*
X772160D01*
X871220Y204800D02*
X872490Y203530D01*
X871220Y204800D02*
Y242570D01*
X1036320Y351790D02*
X1037673D01*
X1048605Y340858D01*
X1059678D01*
X1118720Y399900D01*
X1120140D01*
X941681Y619760D02*
X949020D01*
X894620Y572699D02*
X941681Y619760D01*
X1000109Y1827141D02*
X1110369D01*
X1146690Y2282070D02*
X1215510D01*
X1229360Y2268220D01*
X946150Y841350D02*
X1037590Y932790D01*
Y967740D01*
X1037903Y1086807D02*
X1038860Y1085850D01*
X1037903Y1086807D02*
Y1103317D01*
X1000109Y1141111D02*
X1037903Y1103317D01*
X1325050Y1718750D02*
X1391920Y1785620D01*
X1110369Y1827141D02*
X1218760Y1718750D01*
X1325050D01*
X872490Y196191D02*
Y203530D01*
X856679Y180380D02*
X872490Y196191D01*
X749910Y180380D02*
X856679D01*
X721450Y208840D02*
X749910Y180380D01*
X614680Y208840D02*
X721450D01*
X361950Y1518920D02*
X494030D01*
X303571Y1263650D02*
X360722Y1320800D01*
X193040Y1263650D02*
X303571D01*
X1118870Y2254250D02*
X1146690Y2282070D01*
X165540Y1448240D02*
X262890Y1545590D01*
X165540Y1054139D02*
X194689Y1024990D01*
X195580D01*
X746760Y1206500D02*
X906780Y1046480D01*
X658617Y1118357D02*
X746760Y1206500D01*
X628137Y1118357D02*
X658617D01*
X946150Y920750D02*
Y928089D01*
X921179Y953060D02*
X946150Y928089D01*
X381000Y953060D02*
X921179D01*
X894620Y558605D02*
Y572699D01*
X822227Y489487D02*
X825503D01*
X753110Y420370D02*
X822227Y489487D01*
X1030680Y2254250D02*
X1118870D01*
X441253Y1201420D02*
X444500D01*
X427483Y1187650D02*
X441253Y1201420D01*
X193040Y1187650D02*
X427483D01*
X746760Y1257300D02*
Y1260547D01*
X763270Y1277057D01*
Y1535430D01*
X195580Y1062990D02*
X196471D01*
X236401Y1023060D01*
X381000D01*
X311860Y883920D02*
X381000Y953060D01*
X191770Y883920D02*
X311860D01*
X183680Y214630D02*
X184640Y213670D01*
Y209050D02*
X202560Y191130D01*
X184640Y209050D02*
Y213670D01*
X407740Y191130D02*
X424180Y207570D01*
X202560Y191130D02*
X407740D01*
X1445260Y406400D02*
X1456690Y394970D01*
X1633220Y369570D02*
X1634490Y368300D01*
X1456690Y369570D02*
X1633220D01*
X359410Y459890D02*
X377115Y477595D01*
X359410Y437140D02*
Y459890D01*
Y437140D02*
X368197Y428354D01*
X464345D01*
D32*
X803910Y721360D02*
X1220470D01*
X360680Y798830D02*
X726440D01*
X803910Y721360D01*
X1036320Y534670D02*
X1041400Y529590D01*
X1060450D01*
X1120140Y469900D01*
X1250950Y2183130D02*
X1300480Y2232660D01*
X1250950Y1986280D02*
Y2183130D01*
X1300480Y2232660D02*
X1354530D01*
X1017417Y1865132D02*
X1177788D01*
X984606Y1865136D02*
Y2230324D01*
X960680Y2254250D02*
X984606Y2230324D01*
X1236980Y2232660D02*
X1300480D01*
X670000Y2309570D02*
X1361440D01*
X1363270Y1644650D02*
X1373430Y1654810D01*
X1283970Y1644650D02*
X1363270D01*
X1259840Y1746250D02*
X1261110Y1747520D01*
Y1781810D01*
X1177788Y1865132D02*
X1261110Y1781810D01*
X1391920Y1706320D02*
Y1785620D01*
Y1706320D02*
X1443430Y1654810D01*
X1610360Y1821740D02*
Y2033270D01*
X1443430Y1654810D02*
X1610360Y1821740D01*
X1373430Y1129590D02*
Y1654810D01*
X1310640Y1066800D02*
X1373430Y1129590D01*
X1354530Y2232660D02*
X1361440Y2239570D01*
X570230Y2209800D02*
X670000Y2309570D01*
X645753Y2205990D02*
X718820D01*
X641944Y2209800D02*
X645753Y2205990D01*
X570230Y2209800D02*
X641944D01*
X1390650Y1939290D02*
X1511300Y2059940D01*
X1390650Y1830070D02*
Y1939290D01*
X856347Y1826591D02*
X967534D01*
X831277Y1851660D02*
X856347Y1826591D01*
X720090Y1851660D02*
X831277D01*
X839470Y1896110D02*
X932180Y1988820D01*
X718820Y1896110D02*
X839470D01*
X924560Y2023110D02*
X925390Y2023940D01*
X686920Y2023110D02*
X924560D01*
X925390Y2023940D02*
X932180D01*
X717467Y1896110D02*
X718820D01*
X707307Y1885950D02*
X717467Y1896110D01*
X384810Y1885950D02*
X707307D01*
X500230Y2209800D02*
X686920Y2023110D01*
X956870Y2250440D02*
X960680Y2254250D01*
X717550Y2250440D02*
X956870D01*
X355040Y2209800D02*
X500230D01*
X351230Y2205990D02*
X355040Y2209800D01*
X281230Y2205990D02*
X285750Y2201470D01*
Y1912620D02*
Y2201470D01*
X611580Y205740D02*
X614680Y208840D01*
X518160Y205740D02*
X611580D01*
X426010D02*
X518160D01*
X424180Y207570D02*
X426010Y205740D01*
X1311910Y935313D02*
Y1022350D01*
Y935313D02*
X1318260Y928963D01*
Y843280D02*
Y928963D01*
X1220470Y721360D02*
X1311910Y812800D01*
X276234Y843280D02*
X359410D01*
X273594Y845920D02*
X276234Y843280D01*
X191770Y845920D02*
X273594D01*
X891390Y369570D02*
X894080Y372260D01*
X753110Y369570D02*
X891390D01*
X618490Y391160D02*
X732274D01*
X735072Y393958D01*
X1120140Y469900D02*
X1162760Y427280D01*
X1315720D01*
X1354380Y497280D02*
X1445260Y406400D01*
X1315720Y497280D02*
X1354380D01*
X1344220Y219000D02*
X1461770Y336550D01*
X1244600Y219000D02*
X1344220D01*
X1229130Y203530D02*
X1244600Y219000D01*
X923290Y203530D02*
X1229130D01*
X614680Y278840D02*
X618490Y282650D01*
Y391160D01*
X615867Y435610D02*
X617220D01*
X608247Y427990D02*
X615867Y435610D01*
X515620Y427990D02*
X608247D01*
X518160Y275740D02*
Y425490D01*
X515660Y427990D02*
X518160Y425490D01*
X515620Y427990D02*
X515660D01*
X347420Y354330D02*
X424180Y277570D01*
X287020Y354330D02*
X347420D01*
X242570Y351707D02*
Y353060D01*
X233680Y342817D02*
X242570Y351707D01*
X233680Y264630D02*
Y342817D01*
D33*
X1330073Y715897D02*
X1633220Y412750D01*
X1303403Y715897D02*
X1330073D01*
X1303020Y716280D02*
X1303403Y715897D01*
X1129030Y868680D02*
X1217930Y779780D01*
X1129030Y868680D02*
Y977900D01*
X862330Y1278890D02*
X892810Y1248410D01*
X862330Y1278890D02*
Y1508760D01*
D34*
X193040Y1187650D02*
D03*
Y1225650D02*
D03*
Y1263650D02*
D03*
X191770Y845920D02*
D03*
Y883920D02*
D03*
Y921920D02*
D03*
X195580Y1024990D02*
D03*
Y1062990D02*
D03*
Y1100990D02*
D03*
X955040Y760730D02*
D03*
X731520Y982980D02*
D03*
X542290Y1416050D02*
D03*
X541020Y1286510D02*
D03*
X833120Y773430D02*
D03*
X751840Y727710D02*
D03*
X871220Y242570D02*
D03*
X1036320Y351790D02*
D03*
X1004570Y618490D02*
D03*
X1036320Y534670D02*
D03*
X1250950Y1986280D02*
D03*
X1037590Y967740D02*
D03*
X1038860Y1085850D02*
D03*
X1283970Y1644650D02*
D03*
X1259840Y1746250D02*
D03*
X1303020Y716280D02*
D03*
X1217930Y779780D02*
D03*
X314960Y929640D02*
D03*
D35*
X1236980Y2258060D02*
D03*
Y2232660D02*
D03*
D36*
X862330Y1508760D02*
D03*
X763270Y1535430D02*
D03*
X262890Y1545590D02*
D03*
X361950Y1518920D02*
D03*
X1511300Y2059940D02*
D03*
X1610360Y2033270D02*
D03*
X285750Y1912620D02*
D03*
X384810Y1885950D02*
D03*
D37*
X1456690Y344170D02*
D03*
Y369570D02*
D03*
Y394970D02*
D03*
X753110Y369570D02*
D03*
Y394970D02*
D03*
Y420370D02*
D03*
X932180Y1996440D02*
D03*
Y2021840D02*
D03*
X1318260Y817880D02*
D03*
Y843280D02*
D03*
D38*
X515620Y427990D02*
D03*
X489484Y427886D02*
D03*
X464345Y428354D02*
D03*
D39*
X967534Y1826591D02*
D03*
X1000109Y1827141D02*
D03*
X949633Y1865660D02*
D03*
X984606Y1865136D02*
D03*
X1017417Y1865132D02*
D03*
X242570Y353060D02*
D03*
X287020Y354330D02*
D03*
X617220Y435610D02*
D03*
X618490Y391160D02*
D03*
X1633220Y412750D02*
D03*
X1634490Y368300D02*
D03*
X359410Y843280D02*
D03*
X360680Y798830D02*
D03*
X1127760Y1022350D02*
D03*
X1129030Y977900D02*
D03*
X1391920Y1785620D02*
D03*
X1390650Y1830070D02*
D03*
X720090Y1851660D02*
D03*
X718820Y1896110D02*
D03*
X1310640Y1066800D02*
D03*
X1311910Y1022350D02*
D03*
X717550Y2250440D02*
D03*
X718820Y2205990D02*
D03*
D40*
X448160Y548640D02*
D03*
X518160D02*
D03*
X424180Y277570D02*
D03*
Y207570D02*
D03*
X518160Y275740D02*
D03*
Y205740D02*
D03*
X614680Y278840D02*
D03*
Y208840D02*
D03*
X1315720Y497280D02*
D03*
Y427280D02*
D03*
X1120140Y469900D02*
D03*
Y399900D02*
D03*
X1244600Y219000D02*
D03*
Y289000D02*
D03*
X894080Y372260D02*
D03*
Y302260D02*
D03*
X542290Y1102510D02*
D03*
Y1032510D02*
D03*
X381000Y953060D02*
D03*
Y1023060D02*
D03*
X1443430Y1654810D02*
D03*
X1373430D02*
D03*
X1361440Y2239570D02*
D03*
Y2309570D02*
D03*
X281230Y2205990D02*
D03*
X351230D02*
D03*
X570230Y2209800D02*
D03*
X500230D02*
D03*
X1030680Y2254250D02*
D03*
X960680D02*
D03*
D41*
X183680Y214630D02*
D03*
D42*
X233680Y164630D02*
D03*
Y264630D02*
D03*
D43*
X158680D02*
D03*
X183680D02*
D03*
X233680Y214630D02*
D03*
X158680Y164630D02*
D03*
X183680D02*
D03*
D44*
X869620Y568960D02*
D03*
Y594360D02*
D03*
Y619760D02*
D03*
Y645160D02*
D03*
X949020D02*
D03*
Y619760D02*
D03*
Y594360D02*
D03*
X923290Y124130D02*
D03*
X897890D02*
D03*
X872490D02*
D03*
X847090D02*
D03*
Y203530D02*
D03*
X872490D02*
D03*
X897890D02*
D03*
X946150Y841350D02*
D03*
X920750D02*
D03*
X895350D02*
D03*
X869950D02*
D03*
Y920750D02*
D03*
X895350D02*
D03*
X920750D02*
D03*
D45*
X949020Y568960D02*
D03*
D46*
X923290Y203530D02*
D03*
X946150Y920750D02*
D03*
D47*
X892810Y1248410D02*
D03*
Y1197610D02*
D03*
X746760Y1206500D02*
D03*
Y1257300D02*
D03*
X444500Y1201420D02*
D03*
Y1252220D02*
D03*
D48*
X735072Y393958D02*
X752098D01*
X753110Y394970D01*
M02*
