G04*
G04 #@! TF.GenerationSoftware,Altium Limited,Altium Designer,25.4.2 (15)*
G04*
G04 Layer_Color=2752767*
%FSLAX44Y44*%
%MOMM*%
G71*
G04*
G04 #@! TF.SameCoordinates,B37D86E9-8EB0-469F-8F7F-38126ABF2200*
G04*
G04*
G04 #@! TF.FilePolarity,Positive*
G04*
G01*
G75*
%ADD13C,0.1270*%
%ADD51C,0.1693*%
%ADD52C,0.1016*%
D13*
X187960Y1182570D02*
Y1192730D01*
X198120D01*
Y1182570D01*
X187960D01*
Y1220570D02*
Y1230730D01*
X198120D01*
Y1220570D01*
X187960D01*
Y1258570D02*
Y1268730D01*
X198120D01*
Y1258570D01*
X187960D01*
X186690Y840840D02*
Y851000D01*
X196850D01*
Y840840D01*
X186690D01*
Y878840D02*
Y889000D01*
X196850D01*
Y878840D01*
X186690D01*
Y916840D02*
Y927000D01*
X196850D01*
Y916840D01*
X186690D01*
X190500Y1019910D02*
Y1030070D01*
X200660D01*
Y1019910D01*
X190500D01*
Y1057910D02*
Y1068070D01*
X200660D01*
Y1057910D01*
X190500D01*
Y1095910D02*
Y1106070D01*
X200660D01*
Y1095910D01*
X190500D01*
X862330Y1503680D02*
X857250Y1513840D01*
X867410D01*
X862330Y1503680D01*
Y1505712D02*
X859282Y1511808D01*
X865378D01*
X862330Y1505712D01*
X763270Y1530350D02*
X758190Y1540510D01*
X768350D01*
X763270Y1530350D01*
Y1532382D02*
X760222Y1538478D01*
X766318D01*
X763270Y1532382D01*
X262890Y1540510D02*
X257810Y1550670D01*
X267970D01*
X262890Y1540510D01*
Y1542542D02*
X259842Y1548638D01*
X265938D01*
X262890Y1542542D01*
X361950Y1513840D02*
X356870Y1524000D01*
X367030D01*
X361950Y1513840D01*
Y1515872D02*
X358902Y1521968D01*
X364998D01*
X361950Y1515872D01*
X1511300Y2054860D02*
X1506220Y2065020D01*
X1516380D01*
X1511300Y2054860D01*
Y2056892D02*
X1508252Y2062988D01*
X1514348D01*
X1511300Y2056892D01*
X1610360Y2028190D02*
X1605280Y2038350D01*
X1615440D01*
X1610360Y2028190D01*
Y2030222D02*
X1607312Y2036318D01*
X1613408D01*
X1610360Y2030222D01*
X285750Y1907540D02*
X280670Y1917700D01*
X290830D01*
X285750Y1907540D01*
Y1909572D02*
X282702Y1915668D01*
X288798D01*
X285750Y1909572D01*
X384810Y1880870D02*
X379730Y1891030D01*
X389890D01*
X384810Y1880870D01*
Y1882902D02*
X381762Y1888998D01*
X387858D01*
X384810Y1882902D01*
X1451610Y339090D02*
Y349250D01*
X1461770D01*
Y339090D01*
X1451610D01*
Y364490D02*
Y374650D01*
X1461770D01*
Y364490D01*
X1451610D01*
Y389890D02*
Y400050D01*
X1461770D01*
Y389890D01*
X1451610D01*
X748030Y364490D02*
Y374650D01*
X758190D01*
Y364490D01*
X748030D01*
Y389890D02*
Y400050D01*
X758190D01*
Y389890D01*
X748030D01*
Y415290D02*
Y425450D01*
X758190D01*
Y415290D01*
X748030D01*
X927100Y1991360D02*
Y2001520D01*
X937260D01*
Y1991360D01*
X927100D01*
Y2016760D02*
Y2026920D01*
X937260D01*
Y2016760D01*
X927100D01*
X1313180Y812800D02*
Y822960D01*
X1323340D01*
Y812800D01*
X1313180D01*
Y838200D02*
Y848360D01*
X1323340D01*
Y838200D01*
X1313180D01*
X515620Y422910D02*
X518160Y425450D01*
X520700D01*
X518160Y427990D01*
X520700Y430530D01*
X518160D01*
X515620Y433070D01*
X513080Y430530D01*
X510540D01*
X513080Y427990D01*
X510540Y425450D01*
X513080D01*
X515620Y422910D01*
X489484Y422806D02*
X492024Y425346D01*
X494565D01*
X492024Y427886D01*
X494565Y430426D01*
X492024D01*
X489484Y432966D01*
X486945Y430426D01*
X484404D01*
X486945Y427886D01*
X484404Y425346D01*
X486945D01*
X489484Y422806D01*
X464345Y423274D02*
X466885Y425813D01*
X469425D01*
X466885Y428354D01*
X469425Y430894D01*
X466885D01*
X464345Y433433D01*
X461805Y430894D01*
X459265D01*
X461805Y428354D01*
X459265Y425813D01*
X461805D01*
X464345Y423274D01*
X962454Y1821511D02*
X964994Y1826591D01*
X962454Y1831671D01*
X967534Y1829131D01*
X972614Y1831671D01*
X970074Y1826591D01*
X972614Y1821511D01*
X967534Y1824051D01*
X962454Y1821511D01*
X995029Y1822061D02*
X997569Y1827141D01*
X995029Y1832221D01*
X1000109Y1829681D01*
X1005189Y1832221D01*
X1002649Y1827141D01*
X1005189Y1822061D01*
X1000109Y1824601D01*
X995029Y1822061D01*
X944553Y1860580D02*
X947093Y1865660D01*
X944553Y1870740D01*
X949633Y1868200D01*
X954713Y1870740D01*
X952173Y1865660D01*
X954713Y1860580D01*
X949633Y1863120D01*
X944553Y1860580D01*
X979526Y1860056D02*
X982066Y1865136D01*
X979526Y1870216D01*
X984606Y1867676D01*
X989686Y1870216D01*
X987146Y1865136D01*
X989686Y1860056D01*
X984606Y1862596D01*
X979526Y1860056D01*
X1012337Y1860052D02*
X1014877Y1865132D01*
X1012337Y1870212D01*
X1017417Y1867672D01*
X1022497Y1870212D01*
X1019957Y1865132D01*
X1022497Y1860052D01*
X1017417Y1862592D01*
X1012337Y1860052D01*
X237490Y347980D02*
Y358140D01*
X247650D01*
Y347980D01*
X237490D01*
X281940Y349250D02*
Y359410D01*
X292100D01*
Y349250D01*
X281940D01*
X612140Y430530D02*
Y440690D01*
X622300D01*
Y430530D01*
X612140D01*
X613410Y386080D02*
Y396240D01*
X623570D01*
Y386080D01*
X613410D01*
X1628140Y407670D02*
Y417830D01*
X1638300D01*
Y407670D01*
X1628140D01*
X1629410Y363220D02*
Y373380D01*
X1639570D01*
Y363220D01*
X1629410D01*
X354330Y838200D02*
Y848360D01*
X364490D01*
Y838200D01*
X354330D01*
X355600Y793750D02*
Y803910D01*
X365760D01*
Y793750D01*
X355600D01*
X1122680Y1017270D02*
Y1027430D01*
X1132840D01*
Y1017270D01*
X1122680D01*
X1123950Y972820D02*
Y982980D01*
X1134110D01*
Y972820D01*
X1123950D01*
X1386840Y1780540D02*
Y1790700D01*
X1397000D01*
Y1780540D01*
X1386840D01*
X1385570Y1824990D02*
Y1835150D01*
X1395730D01*
Y1824990D01*
X1385570D01*
X715010Y1846580D02*
Y1856740D01*
X725170D01*
Y1846580D01*
X715010D01*
X713740Y1891030D02*
Y1901190D01*
X723900D01*
Y1891030D01*
X713740D01*
X1305560Y1061720D02*
Y1071880D01*
X1315720D01*
Y1061720D01*
X1305560D01*
X1306830Y1017270D02*
Y1027430D01*
X1316990D01*
Y1017270D01*
X1306830D01*
X712470Y2245360D02*
Y2255520D01*
X722630D01*
Y2245360D01*
X712470D01*
X713740Y2200910D02*
Y2211070D01*
X723900D01*
Y2200910D01*
X713740D01*
X445620Y546100D02*
Y543560D01*
X450700D01*
Y546100D01*
X453240D01*
Y551180D01*
X450700D01*
Y553720D01*
X445620D01*
Y551180D01*
X443080D01*
Y546100D01*
X445620D01*
X515620D02*
Y543560D01*
X520700D01*
Y546100D01*
X523240D01*
Y551180D01*
X520700D01*
Y553720D01*
X515620D01*
Y551180D01*
X513080D01*
Y546100D01*
X515620D01*
X421640Y275030D02*
Y272490D01*
X426720D01*
Y275030D01*
X429260D01*
Y280110D01*
X426720D01*
Y282650D01*
X421640D01*
Y280110D01*
X419100D01*
Y275030D01*
X421640D01*
Y205030D02*
Y202490D01*
X426720D01*
Y205030D01*
X429260D01*
Y210110D01*
X426720D01*
Y212650D01*
X421640D01*
Y210110D01*
X419100D01*
Y205030D01*
X421640D01*
X515620Y273200D02*
Y270660D01*
X520700D01*
Y273200D01*
X523240D01*
Y278280D01*
X520700D01*
Y280820D01*
X515620D01*
Y278280D01*
X513080D01*
Y273200D01*
X515620D01*
Y203200D02*
Y200660D01*
X520700D01*
Y203200D01*
X523240D01*
Y208280D01*
X520700D01*
Y210820D01*
X515620D01*
Y208280D01*
X513080D01*
Y203200D01*
X515620D01*
X612140Y276300D02*
Y273760D01*
X617220D01*
Y276300D01*
X619760D01*
Y281380D01*
X617220D01*
Y283920D01*
X612140D01*
Y281380D01*
X609600D01*
Y276300D01*
X612140D01*
Y206300D02*
Y203760D01*
X617220D01*
Y206300D01*
X619760D01*
Y211380D01*
X617220D01*
Y213920D01*
X612140D01*
Y211380D01*
X609600D01*
Y206300D01*
X612140D01*
X1313180Y494740D02*
Y492200D01*
X1318260D01*
Y494740D01*
X1320800D01*
Y499820D01*
X1318260D01*
Y502360D01*
X1313180D01*
Y499820D01*
X1310640D01*
Y494740D01*
X1313180D01*
Y424740D02*
Y422200D01*
X1318260D01*
Y424740D01*
X1320800D01*
Y429820D01*
X1318260D01*
Y432360D01*
X1313180D01*
Y429820D01*
X1310640D01*
Y424740D01*
X1313180D01*
X1117600Y467360D02*
Y464820D01*
X1122680D01*
Y467360D01*
X1125220D01*
Y472440D01*
X1122680D01*
Y474980D01*
X1117600D01*
Y472440D01*
X1115060D01*
Y467360D01*
X1117600D01*
Y397360D02*
Y394820D01*
X1122680D01*
Y397360D01*
X1125220D01*
Y402440D01*
X1122680D01*
Y404980D01*
X1117600D01*
Y402440D01*
X1115060D01*
Y397360D01*
X1117600D01*
X1242060Y216460D02*
Y213920D01*
X1247140D01*
Y216460D01*
X1249680D01*
Y221540D01*
X1247140D01*
Y224080D01*
X1242060D01*
Y221540D01*
X1239520D01*
Y216460D01*
X1242060D01*
Y286460D02*
Y283920D01*
X1247140D01*
Y286460D01*
X1249680D01*
Y291540D01*
X1247140D01*
Y294080D01*
X1242060D01*
Y291540D01*
X1239520D01*
Y286460D01*
X1242060D01*
X891540Y369720D02*
Y367180D01*
X896620D01*
Y369720D01*
X899160D01*
Y374800D01*
X896620D01*
Y377340D01*
X891540D01*
Y374800D01*
X889000D01*
Y369720D01*
X891540D01*
Y299720D02*
Y297180D01*
X896620D01*
Y299720D01*
X899160D01*
Y304800D01*
X896620D01*
Y307340D01*
X891540D01*
Y304800D01*
X889000D01*
Y299720D01*
X891540D01*
X539750Y1099970D02*
Y1097430D01*
X544830D01*
Y1099970D01*
X547370D01*
Y1105050D01*
X544830D01*
Y1107590D01*
X539750D01*
Y1105050D01*
X537210D01*
Y1099970D01*
X539750D01*
Y1029970D02*
Y1027430D01*
X544830D01*
Y1029970D01*
X547370D01*
Y1035050D01*
X544830D01*
Y1037590D01*
X539750D01*
Y1035050D01*
X537210D01*
Y1029970D01*
X539750D01*
X378460Y950520D02*
Y947980D01*
X383540D01*
Y950520D01*
X386080D01*
Y955600D01*
X383540D01*
Y958140D01*
X378460D01*
Y955600D01*
X375920D01*
Y950520D01*
X378460D01*
Y1020520D02*
Y1017980D01*
X383540D01*
Y1020520D01*
X386080D01*
Y1025600D01*
X383540D01*
Y1028140D01*
X378460D01*
Y1025600D01*
X375920D01*
Y1020520D01*
X378460D01*
X1440890Y1652270D02*
Y1649730D01*
X1445970D01*
Y1652270D01*
X1448510D01*
Y1657350D01*
X1445970D01*
Y1659890D01*
X1440890D01*
Y1657350D01*
X1438350D01*
Y1652270D01*
X1440890D01*
X1370890D02*
Y1649730D01*
X1375970D01*
Y1652270D01*
X1378510D01*
Y1657350D01*
X1375970D01*
Y1659890D01*
X1370890D01*
Y1657350D01*
X1368350D01*
Y1652270D01*
X1370890D01*
X1358900Y2237030D02*
Y2234490D01*
X1363980D01*
Y2237030D01*
X1366520D01*
Y2242110D01*
X1363980D01*
Y2244650D01*
X1358900D01*
Y2242110D01*
X1356360D01*
Y2237030D01*
X1358900D01*
Y2307030D02*
Y2304490D01*
X1363980D01*
Y2307030D01*
X1366520D01*
Y2312110D01*
X1363980D01*
Y2314650D01*
X1358900D01*
Y2312110D01*
X1356360D01*
Y2307030D01*
X1358900D01*
X278690Y2203450D02*
Y2200910D01*
X283770D01*
Y2203450D01*
X286310D01*
Y2208530D01*
X283770D01*
Y2211070D01*
X278690D01*
Y2208530D01*
X276150D01*
Y2203450D01*
X278690D01*
X348690D02*
Y2200910D01*
X353770D01*
Y2203450D01*
X356310D01*
Y2208530D01*
X353770D01*
Y2211070D01*
X348690D01*
Y2208530D01*
X346150D01*
Y2203450D01*
X348690D01*
X567690Y2207260D02*
Y2204720D01*
X572770D01*
Y2207260D01*
X575310D01*
Y2212340D01*
X572770D01*
Y2214880D01*
X567690D01*
Y2212340D01*
X565150D01*
Y2207260D01*
X567690D01*
X497690D02*
Y2204720D01*
X502770D01*
Y2207260D01*
X505310D01*
Y2212340D01*
X502770D01*
Y2214880D01*
X497690D01*
Y2212340D01*
X495150D01*
Y2207260D01*
X497690D01*
X1028140Y2251710D02*
Y2249170D01*
X1033220D01*
Y2251710D01*
X1035760D01*
Y2256790D01*
X1033220D01*
Y2259330D01*
X1028140D01*
Y2256790D01*
X1025600D01*
Y2251710D01*
X1028140D01*
X958140D02*
Y2249170D01*
X963220D01*
Y2251710D01*
X965760D01*
Y2256790D01*
X963220D01*
Y2259330D01*
X958140D01*
Y2256790D01*
X955600D01*
Y2251710D01*
X958140D01*
X178600Y214630D02*
X183680Y219710D01*
X188760Y214630D01*
X183680Y209550D01*
X178600Y214630D01*
X228600Y164630D02*
X233680Y169710D01*
X238760Y164630D01*
X233680Y159550D01*
X228600Y164630D01*
Y264630D02*
X233680Y269710D01*
X238760Y264630D01*
X233680Y259550D01*
X228600Y264630D01*
X153600Y259550D02*
X156140D01*
X158680Y262090D01*
X161220Y259550D01*
X163760D01*
Y262090D01*
X161220Y264630D01*
X163760Y267170D01*
Y269710D01*
X161220D01*
X158680Y267170D01*
X156140Y269710D01*
X153600D01*
Y267170D01*
X156140Y264630D01*
X153600Y262090D01*
Y259550D01*
X178600D02*
X181140D01*
X183680Y262090D01*
X186220Y259550D01*
X188760D01*
Y262090D01*
X186220Y264630D01*
X188760Y267170D01*
Y269710D01*
X186220D01*
X183680Y267170D01*
X181140Y269710D01*
X178600D01*
Y267170D01*
X181140Y264630D01*
X178600Y262090D01*
Y259550D01*
X228600Y209550D02*
X231140D01*
X233680Y212090D01*
X236220Y209550D01*
X238760D01*
Y212090D01*
X236220Y214630D01*
X238760Y217170D01*
Y219710D01*
X236220D01*
X233680Y217170D01*
X231140Y219710D01*
X228600D01*
Y217170D01*
X231140Y214630D01*
X228600Y212090D01*
Y209550D01*
X153600Y159550D02*
X156140D01*
X158680Y162090D01*
X161220Y159550D01*
X163760D01*
Y162090D01*
X161220Y164630D01*
X163760Y167170D01*
Y169710D01*
X161220D01*
X158680Y167170D01*
X156140Y169710D01*
X153600D01*
Y167170D01*
X156140Y164630D01*
X153600Y162090D01*
Y159550D01*
X178600D02*
X181140D01*
X183680Y162090D01*
X186220Y159550D01*
X188760D01*
Y162090D01*
X186220Y164630D01*
X188760Y167170D01*
Y169710D01*
X186220D01*
X183680Y167170D01*
X181140Y169710D01*
X178600D01*
Y167170D01*
X181140Y164630D01*
X178600Y162090D01*
Y159550D01*
X864540Y563880D02*
Y574040D01*
X874700D01*
Y563880D01*
X864540D01*
X866572Y565912D02*
Y572008D01*
X872668D01*
Y565912D01*
X866572D01*
X864540Y589280D02*
Y599440D01*
X874700D01*
Y589280D01*
X864540D01*
X866572Y591312D02*
Y597408D01*
X872668D01*
Y591312D01*
X866572D01*
X864540Y614680D02*
Y624840D01*
X874700D01*
Y614680D01*
X864540D01*
X866572Y616712D02*
Y622808D01*
X872668D01*
Y616712D01*
X866572D01*
X864540Y640080D02*
Y650240D01*
X874700D01*
Y640080D01*
X864540D01*
X866572Y642112D02*
Y648208D01*
X872668D01*
Y642112D01*
X866572D01*
X943940Y640080D02*
Y650240D01*
X954100D01*
Y640080D01*
X943940D01*
X945972Y642112D02*
Y648208D01*
X952068D01*
Y642112D01*
X945972D01*
X943940Y614680D02*
Y624840D01*
X954100D01*
Y614680D01*
X943940D01*
X945972Y616712D02*
Y622808D01*
X952068D01*
Y616712D01*
X945972D01*
X943940Y589280D02*
Y599440D01*
X954100D01*
Y589280D01*
X943940D01*
X945972Y591312D02*
Y597408D01*
X952068D01*
Y591312D01*
X945972D01*
X943940Y563880D02*
Y574040D01*
X954100D01*
Y563880D01*
X943940D01*
X945972Y565912D02*
Y572008D01*
X952068D01*
Y565912D01*
X945972D01*
X918210Y119050D02*
Y129210D01*
X928370D01*
Y119050D01*
X918210D01*
X920242Y121082D02*
Y127178D01*
X926338D01*
Y121082D01*
X920242D01*
X892810Y119050D02*
Y129210D01*
X902970D01*
Y119050D01*
X892810D01*
X894842Y121082D02*
Y127178D01*
X900938D01*
Y121082D01*
X894842D01*
X867410Y119050D02*
Y129210D01*
X877570D01*
Y119050D01*
X867410D01*
X869442Y121082D02*
Y127178D01*
X875538D01*
Y121082D01*
X869442D01*
X842010Y119050D02*
Y129210D01*
X852170D01*
Y119050D01*
X842010D01*
X844042Y121082D02*
Y127178D01*
X850138D01*
Y121082D01*
X844042D01*
X842010Y198450D02*
Y208610D01*
X852170D01*
Y198450D01*
X842010D01*
X844042Y200482D02*
Y206578D01*
X850138D01*
Y200482D01*
X844042D01*
X867410Y198450D02*
Y208610D01*
X877570D01*
Y198450D01*
X867410D01*
X869442Y200482D02*
Y206578D01*
X875538D01*
Y200482D01*
X869442D01*
X892810Y198450D02*
Y208610D01*
X902970D01*
Y198450D01*
X892810D01*
X894842Y200482D02*
Y206578D01*
X900938D01*
Y200482D01*
X894842D01*
X918210Y198450D02*
Y208610D01*
X928370D01*
Y198450D01*
X918210D01*
X920242Y200482D02*
Y206578D01*
X926338D01*
Y200482D01*
X920242D01*
X941070Y836270D02*
Y846430D01*
X951230D01*
Y836270D01*
X941070D01*
X943102Y838302D02*
Y844398D01*
X949198D01*
Y838302D01*
X943102D01*
X915670Y836270D02*
Y846430D01*
X925830D01*
Y836270D01*
X915670D01*
X917702Y838302D02*
Y844398D01*
X923798D01*
Y838302D01*
X917702D01*
X890270Y836270D02*
Y846430D01*
X900430D01*
Y836270D01*
X890270D01*
X892302Y838302D02*
Y844398D01*
X898398D01*
Y838302D01*
X892302D01*
X864870Y836270D02*
Y846430D01*
X875030D01*
Y836270D01*
X864870D01*
X866902Y838302D02*
Y844398D01*
X872998D01*
Y838302D01*
X866902D01*
X864870Y915670D02*
Y925830D01*
X875030D01*
Y915670D01*
X864870D01*
X866902Y917702D02*
Y923798D01*
X872998D01*
Y917702D01*
X866902D01*
X890270Y915670D02*
Y925830D01*
X900430D01*
Y915670D01*
X890270D01*
X892302Y917702D02*
Y923798D01*
X898398D01*
Y917702D01*
X892302D01*
X915670Y915670D02*
Y925830D01*
X925830D01*
Y915670D01*
X915670D01*
X917702Y917702D02*
Y923798D01*
X923798D01*
Y917702D01*
X917702D01*
X941070Y915670D02*
Y925830D01*
X951230D01*
Y915670D01*
X941070D01*
X943102Y917702D02*
Y923798D01*
X949198D01*
Y917702D01*
X943102D01*
X887730Y1243330D02*
Y1253490D01*
X897890D01*
Y1243330D01*
X887730D01*
Y1192530D02*
Y1202690D01*
X897890D01*
Y1192530D01*
X887730D01*
X741680Y1201420D02*
Y1211580D01*
X751840D01*
Y1201420D01*
X741680D01*
Y1252220D02*
Y1262380D01*
X751840D01*
Y1252220D01*
X741680D01*
X439420Y1196340D02*
Y1206500D01*
X449580D01*
Y1196340D01*
X439420D01*
Y1247140D02*
Y1257300D01*
X449580D01*
Y1247140D01*
X439420D01*
D51*
X1242060Y2258060D02*
G03*
X1242060Y2258060I-5080J0D01*
G01*
Y2232660D02*
G03*
X1242060Y2232660I-5080J0D01*
G01*
X960120Y760730D02*
G03*
X960120Y760730I-5080J0D01*
G01*
X736600Y982980D02*
G03*
X736600Y982980I-5080J0D01*
G01*
X547370Y1416050D02*
G03*
X547370Y1416050I-5080J0D01*
G01*
X546100Y1286510D02*
G03*
X546100Y1286510I-5080J0D01*
G01*
X838200Y773430D02*
G03*
X838200Y773430I-5080J0D01*
G01*
X756920Y727710D02*
G03*
X756920Y727710I-5080J0D01*
G01*
X876300Y242570D02*
G03*
X876300Y242570I-5080J0D01*
G01*
X1041400Y351790D02*
G03*
X1041400Y351790I-5080J0D01*
G01*
X1009650Y618490D02*
G03*
X1009650Y618490I-5080J0D01*
G01*
X1041400Y534670D02*
G03*
X1041400Y534670I-5080J0D01*
G01*
X1256030Y1986280D02*
G03*
X1256030Y1986280I-5080J0D01*
G01*
X1042670Y967740D02*
G03*
X1042670Y967740I-5080J0D01*
G01*
X1043940Y1085850D02*
G03*
X1043940Y1085850I-5080J0D01*
G01*
X1289050Y1644650D02*
G03*
X1289050Y1644650I-5080J0D01*
G01*
X1264920Y1746250D02*
G03*
X1264920Y1746250I-5080J0D01*
G01*
X1308100Y716280D02*
G03*
X1308100Y716280I-5080J0D01*
G01*
X1223010Y779780D02*
G03*
X1223010Y779780I-5080J0D01*
G01*
X320040Y929640D02*
G03*
X320040Y929640I-5080J0D01*
G01*
D52*
X958088Y760730D02*
G03*
X958088Y760730I-3048J0D01*
G01*
X734568Y982980D02*
G03*
X734568Y982980I-3048J0D01*
G01*
X545338Y1416050D02*
G03*
X545338Y1416050I-3048J0D01*
G01*
X544068Y1286510D02*
G03*
X544068Y1286510I-3048J0D01*
G01*
X836168Y773430D02*
G03*
X836168Y773430I-3048J0D01*
G01*
X754888Y727710D02*
G03*
X754888Y727710I-3048J0D01*
G01*
X874268Y242570D02*
G03*
X874268Y242570I-3048J0D01*
G01*
X1039368Y351790D02*
G03*
X1039368Y351790I-3048J0D01*
G01*
X1007618Y618490D02*
G03*
X1007618Y618490I-3048J0D01*
G01*
X1039368Y534670D02*
G03*
X1039368Y534670I-3048J0D01*
G01*
X1253998Y1986280D02*
G03*
X1253998Y1986280I-3048J0D01*
G01*
X1040638Y967740D02*
G03*
X1040638Y967740I-3048J0D01*
G01*
X1041908Y1085850D02*
G03*
X1041908Y1085850I-3048J0D01*
G01*
X1287018Y1644650D02*
G03*
X1287018Y1644650I-3048J0D01*
G01*
X1262888Y1746250D02*
G03*
X1262888Y1746250I-3048J0D01*
G01*
X1306068Y716280D02*
G03*
X1306068Y716280I-3048J0D01*
G01*
X1220978Y779780D02*
G03*
X1220978Y779780I-3048J0D01*
G01*
X318008Y929640D02*
G03*
X318008Y929640I-3048J0D01*
G01*
M02*
