G04*
G04 #@! TF.GenerationSoftware,Altium Limited,Altium Designer,25.4.2 (15)*
G04*
G04 Layer_Color=32768*
%FSLAX44Y44*%
%MOMM*%
G71*
G04*
G04 #@! TF.SameCoordinates,B37D86E9-8EB0-469F-8F7F-38126ABF2200*
G04*
G04*
G04 #@! TF.FilePolarity,Positive*
G04*
G01*
G75*
%ADD11C,0.7620*%
%ADD12C,0.2032*%
%ADD50C,0.0500*%
D11*
X970445Y1521460D02*
G03*
X970445Y1521460I-156375J0D01*
G01*
X470065Y1531620D02*
G03*
X470065Y1531620I-156375J0D01*
G01*
X1715935Y2047240D02*
G03*
X1715935Y2047240I-156375J0D01*
G01*
X492925Y1898650D02*
G03*
X492925Y1898650I-156375J0D01*
G01*
D12*
X176530Y1286510D02*
X177800Y1285240D01*
Y1170940D02*
Y1285240D01*
Y1170940D02*
X214630D01*
Y1286510D01*
X176530D02*
X214630D01*
X175260Y944780D02*
X176530Y943510D01*
Y829210D02*
Y943510D01*
Y829210D02*
X213360D01*
Y944780D01*
X175260D02*
X213360D01*
X179070Y1123850D02*
X180340Y1122580D01*
Y1008280D02*
Y1122580D01*
Y1008280D02*
X217170D01*
Y1123850D01*
X179070D02*
X217170D01*
X1262380Y2282190D02*
X1263650Y2280920D01*
X1212850Y2282190D02*
X1262380D01*
X1212850Y2205990D02*
Y2282190D01*
Y2205990D02*
X1263650D01*
Y2280920D01*
X1443990Y331470D02*
Y407670D01*
Y331470D02*
X1469390D01*
Y407670D01*
X1443990D02*
X1469390D01*
X740410Y356870D02*
Y433070D01*
Y356870D02*
X765810D01*
Y433070D01*
X740410D02*
X765810D01*
X915670Y2040890D02*
X916940Y2042160D01*
X915670Y1978660D02*
Y2040890D01*
Y1978660D02*
X953770D01*
Y2042160D01*
X916940D02*
X953770D01*
X1301750Y862330D02*
X1303020Y863600D01*
X1301750Y800100D02*
Y862330D01*
Y800100D02*
X1339850D01*
Y863600D01*
X1303020D02*
X1339850D01*
X929640Y1888490D02*
X1047750D01*
X925830Y1884680D02*
X929640Y1888490D01*
X925830Y1776730D02*
Y1884680D01*
Y1776730D02*
X1047750D01*
Y1888490D01*
X218440Y318770D02*
Y394970D01*
X314960D01*
Y316230D02*
Y394970D01*
Y316230D02*
X316230Y314960D01*
X222250D02*
X316230D01*
X218440Y318770D02*
X222250Y314960D01*
X582930Y459740D02*
X659130D01*
Y363220D02*
Y459740D01*
X580390Y363220D02*
X659130D01*
X579120Y361950D02*
X580390Y363220D01*
X579120Y361950D02*
Y455930D01*
X582930Y459740D01*
X1598930Y436880D02*
X1675130D01*
Y340360D02*
Y436880D01*
X1596390Y340360D02*
X1675130D01*
X1595120Y339090D02*
X1596390Y340360D01*
X1595120Y339090D02*
Y433070D01*
X1598930Y436880D01*
X325120Y867410D02*
X401320D01*
Y770890D02*
Y867410D01*
X322580Y770890D02*
X401320D01*
X321310Y769620D02*
X322580Y770890D01*
X321310Y769620D02*
Y863600D01*
X325120Y867410D01*
X1093470Y1046480D02*
X1169670D01*
Y949960D02*
Y1046480D01*
X1090930Y949960D02*
X1169670D01*
X1089660Y948690D02*
X1090930Y949960D01*
X1089660Y948690D02*
Y1042670D01*
X1093470Y1046480D01*
X1350010Y1761490D02*
X1426210D01*
X1350010D02*
Y1858010D01*
X1428750D01*
X1430020Y1859280D01*
Y1765300D02*
Y1859280D01*
X1426210Y1761490D02*
X1430020Y1765300D01*
X678180Y1827530D02*
X754380D01*
X678180D02*
Y1924050D01*
X756920D01*
X758190Y1925320D01*
Y1831340D02*
Y1925320D01*
X754380Y1827530D02*
X758190Y1831340D01*
X1276350Y1090930D02*
X1352550D01*
Y994410D02*
Y1090930D01*
X1273810Y994410D02*
X1352550D01*
X1272540Y993140D02*
X1273810Y994410D01*
X1272540Y993140D02*
Y1087120D01*
X1276350Y1090930D01*
X683260Y2274570D02*
X759460D01*
Y2178050D02*
Y2274570D01*
X680720Y2178050D02*
X759460D01*
X679450Y2176780D02*
X680720Y2178050D01*
X679450Y2176780D02*
Y2270760D01*
X683260Y2274570D01*
X867410Y1282700D02*
X871220D01*
X867410Y1164590D02*
Y1282700D01*
Y1164590D02*
X944880D01*
Y1282700D01*
X871220D02*
X944880D01*
X768350Y1172210D02*
X772160D01*
Y1290320D01*
X694690D02*
X772160D01*
X694690Y1172210D02*
Y1290320D01*
Y1172210D02*
X768350D01*
X466090Y1167130D02*
X469900D01*
Y1285240D01*
X392430D02*
X469900D01*
X392430Y1167130D02*
Y1285240D01*
Y1167130D02*
X466090D01*
D50*
X503160Y536890D02*
Y539840D01*
X526960D01*
Y557440D01*
X503160D02*
X526960D01*
X503160D02*
Y560390D01*
X463160D02*
X503160D01*
X463160Y557440D02*
Y560390D01*
X439360Y557440D02*
X463160D01*
X439360Y539840D02*
Y557440D01*
Y539840D02*
X463160D01*
Y536890D02*
Y539840D01*
Y536890D02*
X503160D01*
X412430Y222570D02*
X415380D01*
Y198770D02*
Y222570D01*
Y198770D02*
X432980D01*
Y222570D01*
X435930D01*
Y262570D01*
X432980D02*
X435930D01*
X432980D02*
Y286370D01*
X415380D02*
X432980D01*
X415380Y262570D02*
Y286370D01*
X412430Y262570D02*
X415380D01*
X412430Y222570D02*
Y262570D01*
X506410Y220740D02*
X509360D01*
Y196940D02*
Y220740D01*
Y196940D02*
X526960D01*
Y220740D01*
X529910D01*
Y260740D01*
X526960D02*
X529910D01*
X526960D02*
Y284540D01*
X509360D02*
X526960D01*
X509360Y260740D02*
Y284540D01*
X506410Y260740D02*
X509360D01*
X506410Y220740D02*
Y260740D01*
X602930Y223840D02*
X605880D01*
Y200040D02*
Y223840D01*
Y200040D02*
X623480D01*
Y223840D01*
X626430D01*
Y263840D01*
X623480D02*
X626430D01*
X623480D02*
Y287640D01*
X605880D02*
X623480D01*
X605880Y263840D02*
Y287640D01*
X602930Y263840D02*
X605880D01*
X602930Y223840D02*
Y263840D01*
X1303970Y442280D02*
X1306920D01*
Y418480D02*
Y442280D01*
Y418480D02*
X1324520D01*
Y442280D01*
X1327470D01*
Y482280D01*
X1324520D02*
X1327470D01*
X1324520D02*
Y506080D01*
X1306920D02*
X1324520D01*
X1306920Y482280D02*
Y506080D01*
X1303970Y482280D02*
X1306920D01*
X1303970Y442280D02*
Y482280D01*
X1108390Y414900D02*
X1111340D01*
Y391100D02*
Y414900D01*
Y391100D02*
X1128940D01*
Y414900D01*
X1131890D01*
Y454900D01*
X1128940D02*
X1131890D01*
X1128940D02*
Y478700D01*
X1111340D02*
X1128940D01*
X1111340Y454900D02*
Y478700D01*
X1108390Y454900D02*
X1111340D01*
X1108390Y414900D02*
Y454900D01*
X1253400Y274000D02*
X1256350D01*
X1253400D02*
Y297800D01*
X1235800D02*
X1253400D01*
X1235800Y274000D02*
Y297800D01*
X1232850Y274000D02*
X1235800D01*
X1232850Y234000D02*
Y274000D01*
Y234000D02*
X1235800D01*
Y210200D02*
Y234000D01*
Y210200D02*
X1253400D01*
Y234000D01*
X1256350D01*
Y274000D01*
X882330Y317260D02*
X885280D01*
Y293460D02*
Y317260D01*
Y293460D02*
X902880D01*
Y317260D01*
X905830D01*
Y357260D01*
X902880D02*
X905830D01*
X902880D02*
Y381060D01*
X885280D02*
X902880D01*
X885280Y357260D02*
Y381060D01*
X882330Y357260D02*
X885280D01*
X882330Y317260D02*
Y357260D01*
X530540Y1047510D02*
X533490D01*
Y1023710D02*
Y1047510D01*
Y1023710D02*
X551090D01*
Y1047510D01*
X554040D01*
Y1087510D01*
X551090D02*
X554040D01*
X551090D02*
Y1111310D01*
X533490D02*
X551090D01*
X533490Y1087510D02*
Y1111310D01*
X530540Y1087510D02*
X533490D01*
X530540Y1047510D02*
Y1087510D01*
X389800Y1008060D02*
X392750D01*
X389800D02*
Y1031860D01*
X372200D02*
X389800D01*
X372200Y1008060D02*
Y1031860D01*
X369250Y1008060D02*
X372200D01*
X369250Y968060D02*
Y1008060D01*
Y968060D02*
X372200D01*
Y944260D02*
Y968060D01*
Y944260D02*
X389800D01*
Y968060D01*
X392750D01*
Y1008060D01*
X1388430Y1663610D02*
Y1666560D01*
X1364630Y1663610D02*
X1388430D01*
X1364630Y1646010D02*
Y1663610D01*
Y1646010D02*
X1388430D01*
Y1643060D02*
Y1646010D01*
Y1643060D02*
X1428430D01*
Y1646010D01*
X1452230D01*
Y1663610D01*
X1428430D02*
X1452230D01*
X1428430D02*
Y1666560D01*
X1388430D02*
X1428430D01*
X1370240Y2294570D02*
X1373190D01*
X1370240D02*
Y2318370D01*
X1352640D02*
X1370240D01*
X1352640Y2294570D02*
Y2318370D01*
X1349690Y2294570D02*
X1352640D01*
X1349690Y2254570D02*
Y2294570D01*
Y2254570D02*
X1352640D01*
Y2230770D02*
Y2254570D01*
Y2230770D02*
X1370240D01*
Y2254570D01*
X1373190D01*
Y2294570D01*
X336230Y2194240D02*
Y2197190D01*
X360030D01*
Y2214790D01*
X336230D02*
X360030D01*
X336230D02*
Y2217740D01*
X296230D02*
X336230D01*
X296230Y2214790D02*
Y2217740D01*
X272430Y2214790D02*
X296230D01*
X272430Y2197190D02*
Y2214790D01*
Y2197190D02*
X296230D01*
Y2194240D02*
Y2197190D01*
Y2194240D02*
X336230D01*
X515230Y2218600D02*
Y2221550D01*
X491430Y2218600D02*
X515230D01*
X491430Y2201000D02*
Y2218600D01*
Y2201000D02*
X515230D01*
Y2198050D02*
Y2201000D01*
Y2198050D02*
X555230D01*
Y2201000D01*
X579030D01*
Y2218600D01*
X555230D02*
X579030D01*
X555230D02*
Y2221550D01*
X515230D02*
X555230D01*
X975680Y2263050D02*
Y2266000D01*
X951880Y2263050D02*
X975680D01*
X951880Y2245450D02*
Y2263050D01*
Y2245450D02*
X975680D01*
Y2242500D02*
Y2245450D01*
Y2242500D02*
X1015680D01*
Y2245450D01*
X1039480D01*
Y2263050D01*
X1015680D02*
X1039480D01*
X1015680D02*
Y2266000D01*
X975680D02*
X1015680D01*
X113180Y152130D02*
Y277130D01*
Y152130D02*
X261180D01*
Y277130D01*
X113180D02*
X261180D01*
X957170Y556610D02*
Y657510D01*
X861470Y556610D02*
Y657510D01*
X957170D01*
X861470Y556610D02*
X957170D01*
X834740Y211680D02*
X935640D01*
X834740Y115980D02*
X935640D01*
X834740D02*
Y211680D01*
X935640Y115980D02*
Y211680D01*
X857600Y928900D02*
X958500D01*
X857600Y833200D02*
X958500D01*
X857600D02*
Y928900D01*
X958500Y833200D02*
Y928900D01*
M02*
