G04*
G04 #@! TF.GenerationSoftware,Altium Limited,Altium Designer,25.4.2 (15)*
G04*
G04 Layer_Color=128*
%FSLAX44Y44*%
%MOMM*%
G71*
G04*
G04 #@! TF.SameCoordinates,B37D86E9-8EB0-469F-8F7F-38126ABF2200*
G04*
G04*
G04 #@! TF.FilePolarity,Positive*
G04*
G01*
G75*
%ADD13C,0.1270*%
D13*
X188040Y1187650D02*
X198040D01*
X193040Y1182650D02*
Y1192650D01*
X188040Y1225650D02*
X198040D01*
X193040Y1220650D02*
Y1230650D01*
X188040Y1263650D02*
X198040D01*
X193040Y1258650D02*
Y1268650D01*
X186770Y845920D02*
X196770D01*
X191770Y840920D02*
Y850920D01*
X186770Y883920D02*
X196770D01*
X191770Y878920D02*
Y888920D01*
X186770Y921920D02*
X196770D01*
X191770Y916920D02*
Y926920D01*
X190580Y1024990D02*
X200580D01*
X195580Y1019990D02*
Y1029990D01*
X190580Y1062990D02*
X200580D01*
X195580Y1057990D02*
Y1067990D01*
X190580Y1100990D02*
X200580D01*
X195580Y1095990D02*
Y1105990D01*
X1233480Y2258060D02*
X1240480D01*
X1236980Y2254560D02*
Y2261560D01*
X1233480Y2232660D02*
X1240480D01*
X1236980Y2229160D02*
Y2236160D01*
X852330Y1508760D02*
X872330D01*
X862330Y1498760D02*
Y1518760D01*
X753270Y1535430D02*
X773270D01*
X763270Y1525430D02*
Y1545430D01*
X252890Y1545590D02*
X272890D01*
X262890Y1535590D02*
Y1555590D01*
X351950Y1518920D02*
X371950D01*
X361950Y1508920D02*
Y1528920D01*
X1501300Y2059940D02*
X1521300D01*
X1511300Y2049940D02*
Y2069940D01*
X1600360Y2033270D02*
X1620360D01*
X1610360Y2023270D02*
Y2043270D01*
X275750Y1912620D02*
X295750D01*
X285750Y1902620D02*
Y1922620D01*
X374810Y1885950D02*
X394810D01*
X384810Y1875950D02*
Y1895950D01*
X1451690Y344170D02*
X1461690D01*
X1456690Y339170D02*
Y349170D01*
X1451690Y369570D02*
X1461690D01*
X1456690Y364570D02*
Y374570D01*
X1451690Y394970D02*
X1461690D01*
X1456690Y389970D02*
Y399970D01*
X748110Y369570D02*
X758110D01*
X753110Y364570D02*
Y374570D01*
X748110Y394970D02*
X758110D01*
X753110Y389970D02*
Y399970D01*
X748110Y420370D02*
X758110D01*
X753110Y415370D02*
Y425370D01*
X927180Y1996440D02*
X937180D01*
X932180Y1991440D02*
Y2001440D01*
X927180Y2021840D02*
X937180D01*
X932180Y2016840D02*
Y2026840D01*
X1313260Y817880D02*
X1323260D01*
X1318260Y812880D02*
Y822880D01*
X1313260Y843280D02*
X1323260D01*
X1318260Y838280D02*
Y848280D01*
X511620Y427990D02*
X519620D01*
X515620Y423990D02*
Y431990D01*
X485485Y427886D02*
X493484D01*
X489484Y423886D02*
Y431886D01*
X460345Y428354D02*
X468345D01*
X464345Y424353D02*
Y432354D01*
X960034Y1826591D02*
X975034D01*
X967534Y1819091D02*
Y1834091D01*
X992609Y1827141D02*
X1007609D01*
X1000109Y1819641D02*
Y1834641D01*
X942133Y1865660D02*
X957133D01*
X949633Y1858160D02*
Y1873160D01*
X977106Y1865136D02*
X992106D01*
X984606Y1857636D02*
Y1872636D01*
X1009917Y1865132D02*
X1024917D01*
X1017417Y1857632D02*
Y1872632D01*
X237570Y353060D02*
X247570D01*
X242570Y348060D02*
Y358060D01*
X282020Y354330D02*
X292020D01*
X287020Y349330D02*
Y359330D01*
X612220Y435610D02*
X622220D01*
X617220Y430610D02*
Y440610D01*
X613490Y391160D02*
X623490D01*
X618490Y386160D02*
Y396160D01*
X1628220Y412750D02*
X1638220D01*
X1633220Y407750D02*
Y417750D01*
X1629490Y368300D02*
X1639490D01*
X1634490Y363300D02*
Y373300D01*
X354410Y843280D02*
X364410D01*
X359410Y838280D02*
Y848280D01*
X355680Y798830D02*
X365680D01*
X360680Y793830D02*
Y803830D01*
X1122760Y1022350D02*
X1132760D01*
X1127760Y1017350D02*
Y1027350D01*
X1124030Y977900D02*
X1134030D01*
X1129030Y972900D02*
Y982900D01*
X1386920Y1785620D02*
X1396920D01*
X1391920Y1780620D02*
Y1790620D01*
X1385650Y1830070D02*
X1395650D01*
X1390650Y1825070D02*
Y1835070D01*
X715090Y1851660D02*
X725090D01*
X720090Y1846660D02*
Y1856660D01*
X713820Y1896110D02*
X723820D01*
X718820Y1891110D02*
Y1901110D01*
X1305640Y1066800D02*
X1315640D01*
X1310640Y1061800D02*
Y1071800D01*
X1306910Y1022350D02*
X1316910D01*
X1311910Y1017350D02*
Y1027350D01*
X712550Y2250440D02*
X722550D01*
X717550Y2245440D02*
Y2255440D01*
X713820Y2205990D02*
X723820D01*
X718820Y2200990D02*
Y2210990D01*
X444410Y548640D02*
X451910D01*
X448160Y544890D02*
Y552390D01*
X514410Y548640D02*
X521910D01*
X518160Y544890D02*
Y552390D01*
X420430Y277570D02*
X427930D01*
X424180Y273820D02*
Y281320D01*
X420430Y207570D02*
X427930D01*
X424180Y203820D02*
Y211320D01*
X514410Y275740D02*
X521910D01*
X518160Y271990D02*
Y279490D01*
X514410Y205740D02*
X521910D01*
X518160Y201990D02*
Y209490D01*
X610930Y278840D02*
X618430D01*
X614680Y275090D02*
Y282590D01*
X610930Y208840D02*
X618430D01*
X614680Y205090D02*
Y212590D01*
X1311970Y497280D02*
X1319470D01*
X1315720Y493530D02*
Y501030D01*
X1311970Y427280D02*
X1319470D01*
X1315720Y423530D02*
Y431030D01*
X1116390Y469900D02*
X1123890D01*
X1120140Y466150D02*
Y473650D01*
X1116390Y399900D02*
X1123890D01*
X1120140Y396150D02*
Y403650D01*
X1240850Y219000D02*
X1248350D01*
X1244600Y215250D02*
Y222750D01*
X1240850Y289000D02*
X1248350D01*
X1244600Y285250D02*
Y292750D01*
X890330Y372260D02*
X897830D01*
X894080Y368510D02*
Y376010D01*
X890330Y302260D02*
X897830D01*
X894080Y298510D02*
Y306010D01*
X538540Y1102510D02*
X546040D01*
X542290Y1098760D02*
Y1106260D01*
X538540Y1032510D02*
X546040D01*
X542290Y1028760D02*
Y1036260D01*
X377250Y953060D02*
X384750D01*
X381000Y949310D02*
Y956810D01*
X377250Y1023060D02*
X384750D01*
X381000Y1019310D02*
Y1026810D01*
X1439680Y1654810D02*
X1447180D01*
X1443430Y1651060D02*
Y1658560D01*
X1369680Y1654810D02*
X1377180D01*
X1373430Y1651060D02*
Y1658560D01*
X1357690Y2239570D02*
X1365190D01*
X1361440Y2235820D02*
Y2243320D01*
X1357690Y2309570D02*
X1365190D01*
X1361440Y2305820D02*
Y2313320D01*
X277480Y2205990D02*
X284980D01*
X281230Y2202240D02*
Y2209740D01*
X347480Y2205990D02*
X354980D01*
X351230Y2202240D02*
Y2209740D01*
X566480Y2209800D02*
X573980D01*
X570230Y2206050D02*
Y2213550D01*
X496480Y2209800D02*
X503980D01*
X500230Y2206050D02*
Y2213550D01*
X1026930Y2254250D02*
X1034430D01*
X1030680Y2250500D02*
Y2258000D01*
X956930Y2254250D02*
X964430D01*
X960680Y2250500D02*
Y2258000D01*
X179680Y214630D02*
X187680D01*
X183680Y210630D02*
Y218630D01*
X229680Y164630D02*
X237680D01*
X233680Y160630D02*
Y168630D01*
X229680Y264630D02*
X237680D01*
X233680Y260630D02*
Y268630D01*
X152680Y264630D02*
X164680D01*
X158680Y258630D02*
Y270630D01*
X177680Y264630D02*
X189680D01*
X183680Y258630D02*
Y270630D01*
X227680Y214630D02*
X239680D01*
X233680Y208630D02*
Y220630D01*
X152680Y164630D02*
X164680D01*
X158680Y158630D02*
Y170630D01*
X177680Y164630D02*
X189680D01*
X183680Y158630D02*
Y170630D01*
X865720Y568960D02*
X873520D01*
X869620Y565060D02*
Y572860D01*
X865720Y594360D02*
X873520D01*
X869620Y590460D02*
Y598260D01*
X865720Y619760D02*
X873520D01*
X869620Y615860D02*
Y623660D01*
X865720Y645160D02*
X873520D01*
X869620Y641260D02*
Y649060D01*
X945120Y645160D02*
X952920D01*
X949020Y641260D02*
Y649060D01*
X945120Y619760D02*
X952920D01*
X949020Y615860D02*
Y623660D01*
X945120Y594360D02*
X952920D01*
X949020Y590460D02*
Y598260D01*
X945120Y568960D02*
X952920D01*
X949020Y565060D02*
Y572860D01*
X919390Y124130D02*
X927190D01*
X923290Y120230D02*
Y128030D01*
X893990Y124130D02*
X901790D01*
X897890Y120230D02*
Y128030D01*
X868590Y124130D02*
X876390D01*
X872490Y120230D02*
Y128030D01*
X843190Y124130D02*
X850990D01*
X847090Y120230D02*
Y128030D01*
X843190Y203530D02*
X850990D01*
X847090Y199630D02*
Y207430D01*
X868590Y203530D02*
X876390D01*
X872490Y199630D02*
Y207430D01*
X893990Y203530D02*
X901790D01*
X897890Y199630D02*
Y207430D01*
X919390Y203530D02*
X927190D01*
X923290Y199630D02*
Y207430D01*
X942250Y841350D02*
X950050D01*
X946150Y837450D02*
Y845250D01*
X916850Y841350D02*
X924650D01*
X920750Y837450D02*
Y845250D01*
X891450Y841350D02*
X899250D01*
X895350Y837450D02*
Y845250D01*
X866050Y841350D02*
X873850D01*
X869950Y837450D02*
Y845250D01*
X866050Y920750D02*
X873850D01*
X869950Y916850D02*
Y924650D01*
X891450Y920750D02*
X899250D01*
X895350Y916850D02*
Y924650D01*
X916850Y920750D02*
X924650D01*
X920750Y916850D02*
Y924650D01*
X942250Y920750D02*
X950050D01*
X946150Y916850D02*
Y924650D01*
X887810Y1248410D02*
X897810D01*
X892810Y1243410D02*
Y1253410D01*
X887810Y1197610D02*
X897810D01*
X892810Y1192610D02*
Y1202610D01*
X741760Y1206500D02*
X751760D01*
X746760Y1201500D02*
Y1211500D01*
X741760Y1257300D02*
X751760D01*
X746760Y1252300D02*
Y1262300D01*
X439500Y1201420D02*
X449500D01*
X444500Y1196420D02*
Y1206420D01*
X439500Y1252220D02*
X449500D01*
X444500Y1247220D02*
Y1257220D01*
X949540Y760730D02*
X960540D01*
X955040Y755230D02*
Y766230D01*
X726020Y982980D02*
X737020D01*
X731520Y977480D02*
Y988480D01*
X536790Y1416050D02*
X547790D01*
X542290Y1410550D02*
Y1421550D01*
X535520Y1286510D02*
X546520D01*
X541020Y1281010D02*
Y1292010D01*
X827620Y773430D02*
X838620D01*
X833120Y767930D02*
Y778930D01*
X746340Y727710D02*
X757340D01*
X751840Y722210D02*
Y733210D01*
X865720Y242570D02*
X876720D01*
X871220Y237070D02*
Y248070D01*
X1030820Y351790D02*
X1041820D01*
X1036320Y346290D02*
Y357290D01*
X999070Y618490D02*
X1010070D01*
X1004570Y612990D02*
Y623990D01*
X1030820Y534670D02*
X1041820D01*
X1036320Y529170D02*
Y540170D01*
X1245450Y1986280D02*
X1256450D01*
X1250950Y1980780D02*
Y1991780D01*
X1032090Y967740D02*
X1043090D01*
X1037590Y962240D02*
Y973240D01*
X1033360Y1085850D02*
X1044360D01*
X1038860Y1080350D02*
Y1091350D01*
X1278470Y1644650D02*
X1289470D01*
X1283970Y1639150D02*
Y1650150D01*
X1254340Y1746250D02*
X1265340D01*
X1259840Y1740750D02*
Y1751750D01*
X1297520Y716280D02*
X1308520D01*
X1303020Y710780D02*
Y721780D01*
X1212430Y779780D02*
X1223430D01*
X1217930Y774280D02*
Y785280D01*
X309460Y929640D02*
X320460D01*
X314960Y924140D02*
Y935140D01*
M02*
